<?xml version="1.0" standalone="yes"?>
<svg xmlns="http://www.w3.org/2000/svg" width="372" height="368">
<path style="fill:#fefefe; stroke:none;" d="M0 0L0 368L372 368L372 0L0 0z"/>
<path style="fill:#a5a5a5; stroke:none;" d="M57 4L57 5L313 5L289 4L237 4L57 4M49.6667 5.33334L50.3333 5.66666L49.6667 5.33334z"/>
<path style="fill:#21655e; stroke:none;" d="M51.6667 5.33334L52.3333 5.66666L51.6667 5.33334z"/>
<path style="fill:#030808; stroke:none;" d="M53 5.42825C47.1513 6.26801 41.3667 7.81046 36 10.3233C6.36634 24.1987 8 54.3106 8 82L8 153C8 187.86 7.37822 221.143 21.0116 254C51.8379 328.293 133.582 370.18 212 358.573C280.656 348.41 340.1 298.037 357.105 230C365.633 195.877 362 158.897 362 124L362 71C362 52.3586 362.116 34.3013 347.91 20.0903C327.092 -0.735138 293.734 5 267 5L125 5C101.633 5 76.1227 2.10828 53 5.42825z"/>
<path style="fill:#21655e; stroke:none;" d="M317.667 5.33334L318.333 5.66666L317.667 5.33334z"/>
<path style="fill:#a5a5a5; stroke:none;" d="M319.667 5.33334L320.333 5.66666L319.667 5.33334M45 6L46 7L45 6z"/>
<path style="fill:#21655e; stroke:none;" d="M46 6L47 7L46 6M323 6L324 7L323 6z"/>
<path style="fill:#a5a5a5; stroke:none;" d="M324 6L325 7L324 6M42 7L43 8L42 7z"/>
<path style="fill:#21655e; stroke:none;" d="M43 7L44 8L43 7M326 7L327 8L326 7z"/>
<path style="fill:#a5a5a5; stroke:none;" d="M327 7L328 8L327 7M39 8L40 9L39 8z"/>
<path style="fill:#21655e; stroke:none;" d="M40 8L41 9L40 8M329 8L330 9L329 8z"/>
<path style="fill:#a5a5a5; stroke:none;" d="M330 8L331 9L330 8M37 9L38 10L37 9M332 9L333 10L332 9M35 10L36 11L35 10z"/>
<path style="fill:#21655e; stroke:none;" d="M334 10L335 11L334 10z"/>
<path style="fill:#a5a5a5; stroke:none;" d="M33 11L34 12L33 11M336 11L337 12L336 11M31 12L32 13L31 12M338 12L339 13L338 12z"/>
<path style="fill:#21655e; stroke:none;" d="M30 13L31 14L30 13M339 13L340 14L339 13z"/>
<path style="fill:#a5a5a5; stroke:none;" d="M28 14L29 15L28 14M341 14L342 15L341 14M27 15L28 16L27 15M342 15L343 16L342 15z"/>
<path style="fill:#21655e; stroke:none;" d="M26 16L27 17L26 16M343 16L344 17L343 16z"/>
<path style="fill:#a5a5a5; stroke:none;" d="M23 18L24 19L23 18M346 18L347 19L346 18M22 19L23 20L22 19M347 19L348 20L347 19M21 20L22 21L21 20M348 20L349 21L348 20M20 21L21 22L20 21z"/>
<path style="fill:#21655e; stroke:none;" d="M54 21L54 22L317 22L293 21L239 21L54 21z"/>
<path style="fill:#a5a5a5; stroke:none;" d="M349 21L350 22L349 21z"/>
<path style="fill:#21655e; stroke:none;" d="M49.6667 22.3333L50.3333 22.6667L49.6667 22.3333z"/>
<path style="fill:#1fb0a0; stroke:none;" d="M51 22.5178C38.4865 25.1875 28.1875 35.4865 25.5177 48C23.1251 59.2148 25 72.5491 25 84L25 155C25 189.211 24.6989 221.055 38.8619 253C68.6729 320.24 147.247 355.926 218 341.336C277.292 329.109 327.366 283.699 341.113 224C348.518 191.837 345 156.808 345 124L345 66C345 53.3788 345.544 41.7128 335.957 32.0401C319.121 15.0553 284.968 22 263 22L120 22C98.3203 22 72.1865 17.9977 51 22.5178z"/>
<path style="fill:#21655e; stroke:none;" d="M320 22L321 23L320 22M46.6667 23.3333L47.3333 23.6667L46.6667 23.3333M322.667 23.3333L323.333 23.6667L322.667 23.3333M18 24L19 25L18 24M44 24L45 25L44 24M325 24L326 25L325 24M351 24L352 25L351 24z"/>
<path style="fill:#a5a5a5; stroke:none;" d="M17 25L18 26L17 25z"/>
<path style="fill:#21655e; stroke:none;" d="M42 25L43 26L42 25M327 25L328 26L327 25z"/>
<path style="fill:#a5a5a5; stroke:none;" d="M352 25L353 26L352 25M16 26L17 27L16 26z"/>
<path style="fill:#21655e; stroke:none;" d="M40 26L41 27L40 26M329 26L330 27L329 26z"/>
<path style="fill:#a5a5a5; stroke:none;" d="M353 26L354 27L353 26z"/>
<path style="fill:#21655e; stroke:none;" d="M39 27L40 28L39 27M330 27L331 28L330 27z"/>
<path style="fill:#a5a5a5; stroke:none;" d="M15 28L16 29L15 28z"/>
<path style="fill:#21655e; stroke:none;" d="M37 28L38 29L37 28M332 28L333 29L332 28M354 28L355 29L354 28z"/>
<path style="fill:#a5a5a5; stroke:none;" d="M14 29L15 30L14 29z"/>
<path style="fill:#21655e; stroke:none;" d="M36 29L37 30L36 29M333 29L334 30L333 29z"/>
<path style="fill:#a5a5a5; stroke:none;" d="M355 29L356 30L355 29z"/>
<path style="fill:#21655e; stroke:none;" d="M14 30L15 31L14 30M35 30L36 31L35 30M334 30L335 31L334 30M355 30L356 31L355 30z"/>
<path style="fill:#a5a5a5; stroke:none;" d="M13 31L14 32L13 31z"/>
<path style="fill:#21655e; stroke:none;" d="M34 31L35 32L34 31M335 31L336 32L335 31z"/>
<path style="fill:#a5a5a5; stroke:none;" d="M356 31L357 32L356 31z"/>
<path style="fill:#21655e; stroke:none;" d="M33 32L34 33L33 32M336 32L337 33L336 32z"/>
<path style="fill:#a5a5a5; stroke:none;" d="M12 33L13 34L12 33z"/>
<path style="fill:#21655e; stroke:none;" d="M32 33L33 34L32 33M337 33L338 34L337 33z"/>
<path style="fill:#a5a5a5; stroke:none;" d="M357 33L358 34L357 33z"/>
<path style="fill:#21655e; stroke:none;" d="M12 34L13 35L12 34M31 34L32 35L31 34M338 34L339 35L338 34z"/>
<path style="fill:#a5a5a5; stroke:none;" d="M11 35L12 36L11 35M358 35L359 36L358 35z"/>
<path style="fill:#21655e; stroke:none;" d="M11 36L12 37L11 36M30 36L31 37L30 36M358 36L359 37L358 36M29 37L30 38L29 37z"/>
<path style="fill:#a5a5a5; stroke:none;" d="M10 38L11 39L10 38M359 38L360 39L359 38z"/>
<path style="fill:#21655e; stroke:none;" d="M10 39L11 40L10 39M28 39L29 40L28 39M341 39L342 40L341 39M359 39L360 40L359 39z"/>
<path style="fill:#a5a5a5; stroke:none;" d="M9 41L10 42L9 41z"/>
<path style="fill:#21655e; stroke:none;" d="M27 41L28 42L27 41M185 41L184 71L184 132L44 132L44 134L184 134L184 224L185 224L185 162L184 132C194.809 137.624 213.949 134 226 134C259.312 134 292.706 133.224 326 134L326 132L232 132L185 131L185 72L185 41M342 41L343 42L342 41z"/>
<path style="fill:#a5a5a5; stroke:none;" d="M360 41L361 42L360 41z"/>
<path style="fill:#21655e; stroke:none;" d="M9 42L10 43L9 42M360 42L361 43L360 42M26.3333 43.6667L26.6667 44.3333L26.3333 43.6667z"/>
<path style="fill:#030808; stroke:none;" d="M185 43L185 129L186 129L186 70L185 43z"/>
<path style="fill:#21655e; stroke:none;" d="M343 43L344 44L343 43z"/>
<path style="fill:#a5a5a5; stroke:none;" d="M8.33333 44.6667L8.66667 45.3333L8.33333 44.6667M361.333 44.6667L361.667 45.3333L361.333 44.6667z"/>
<path style="fill:#21655e; stroke:none;" d="M8.33333 46.6667L8.66667 47.3333L8.33333 46.6667M25.3333 46.6667L25.6667 47.3333L25.3333 46.6667M344.333 46.6667L344.667 47.3333L344.333 46.6667M361.333 46.6667L361.667 47.3333L361.333 46.6667z"/>
<path style="fill:#030808; stroke:none;" d="M212 49C202.332 61.1911 192.171 79.9763 198.688 95.9962C201.062 101.832 206.972 101.877 209.972 106.418C212.914 110.871 211 120.807 211 126L214 126L214 105C240.376 100.883 225.697 59.5065 212 49z"/>
<path style="fill:#21655e; stroke:none;" d="M213 49L214 50L213 49z"/>
<path style="fill:#030808; stroke:none;" d="M254 49C245.04 61.5103 233.213 81.1226 241.453 96.9962C243.93 101.768 250.421 102.768 252.397 107.225C254.98 113.052 249.883 122.035 256 126C256 120.795 254.274 111.805 257.028 107.225C259.978 102.318 266.36 101.992 268.867 95.9992C275.077 81.1508 266.6 58.0692 254 49z"/>
<path style="fill:#21655e; stroke:none;" d="M255 49L256 50L255 49M293 53L298 50L293 53M214 50L215 51L214 50M256 50L257 51L256 50z"/>
<path style="fill:#030808; stroke:none;" d="M296 105L296 126C302.117 122.035 297.02 113.052 299.603 107.225C301.568 102.792 308.049 101.713 310.558 96.9962C318.852 81.4023 307.318 62.6299 299 50C280.442 55.253 272.486 101.46 296 105z"/>
<path style="fill:#a5a5a5; stroke:none;" d="M7 51L7 197L8 197L8 95C8 82.5323 11.8071 62.4559 7 51z"/>
<path style="fill:#21655e; stroke:none;" d="M24 51L24 196L25 196L25 95C25 82.5323 28.8071 62.4559 24 51M215 51L216 52L215 51M252 51L253 52L252 51M257 51L258 52L257 51M299 51L300 52L299 51M345 51L345 196L346 196L346 95C346 82.5323 349.807 62.4559 345 51z"/>
<path style="fill:#a5a5a5; stroke:none;" d="M362 51L362 199L363 199L363 95C363 82.5323 366.807 62.4559 362 51z"/>
<path style="fill:#21655e; stroke:none;" d="M209 52L210 53L209 52M251 52L252 53L251 52M258 52L259 53L258 52M300 52L301 53L300 52M208 53L209 54L208 53M216 53L217 54L216 53M250 53L251 54L250 53M301 53L302 54L301 53M207 54L208 55L207 54M212 54L210 57L212 55L213 55L216 58L212 54M217 54L218 55L217 54M254.667 54.3333L255.333 54.6667L254.667 54.3333M296.667 54.3333L297.333 54.6667L296.667 54.3333z"/>
<path style="fill:#1fb0a0; stroke:none;" d="M212 55L212 61C214.297 58.5457 214.297 57.4543 212 55z"/>
<path style="fill:#21655e; stroke:none;" d="M218 55L219 56L218 55M249 55L250 56L249 55z"/>
<path style="fill:#1fb0a0; stroke:none;" d="M252 57L252 58L256 60L256 55L252 57z"/>
<path style="fill:#21655e; stroke:none;" d="M260 55L261 56L260 55M291 55L292 56L291 55z"/>
<path style="fill:#1fb0a0; stroke:none;" d="M296 55L296 60L300 58L296 55z"/>
<path style="fill:#21655e; stroke:none;" d="M142 56L142 57L146 57L142 56M206 56L207 57L206 56M248 56L249 57L248 56M261 56L262 57L261 56M290 56L291 57L290 56M303 56L304 57L303 56M139.667 57.3333L140.333 57.6667L139.667 57.3333z"/>
<path style="fill:#030808; stroke:none;" d="M176 92L176 90C164.893 86.7169 149.063 93.3132 139.015 87.142C129.423 81.2501 130.336 64.9469 142.001 61.9475C151.14 59.5976 153.279 68.988 156.556 74.6628C157.284 75.9251 158.856 76.7877 159.952 75.338C162.347 72.1689 158.659 65.526 156.606 63.0941C151.11 56.5833 140.963 54.9529 134.185 60.5687C124.79 68.3529 125.832 85.929 137.001 91.5432C145.398 95.7641 167.126 94.623 176 92z"/>
<path style="fill:#21655e; stroke:none;" d="M148 57L149 58L148 57M205 57L206 58L205 57M219 57L220 58L219 57M257.333 57.6667L257.667 58.3333L257.333 57.6667M294.333 57.6667L294.667 58.3333L294.333 57.6667M136 58L137 59L136 58M151 58L152 59L151 58M210 58L211 59L210 58M220 58L221 59L220 58M247 58L248 59L247 58M252 58L253 59L252 58M262 58L263 59L262 58M289 58L290 59L289 58M299 58L300 59L299 58M135 59L136 60L135 59M152 59L153 60L152 59M204 59L205 60L204 59M214 59L215 60L214 59M246 59L247 60L246 59M253 59L254 60L253 59M256 59L257 60L256 59M295 59L296 60L295 59M298 59L299 60L298 59M305 59L306 60L305 59M154 60L155 61L154 60M213 60L214 61L213 60M221 60L222 61L221 60M254.667 60.3333L255.333 60.6667L254.667 60.3333M288 60L289 61L288 60M296.667 60.3333L297.333 60.6667L296.667 60.3333M142 61L142 62L146 62L142 61M155 61L156 62L155 61M203 61L204 62L203 61M207 61L206 63L207 61M217 61L214 66L215 66L219 63L217 61M245 61L246 62L245 61M249 61L250 62L249 61M258 62L258 63L262 64L260 61L258 62M264 61L265 62L264 61M292 61L290 64L294 63L292 61M302 61L303 62L302 61M306 61L307 62L306 61M139 62L140 63L139 62M148 62L149 63L148 62M156 62L157 63L156 62M202.333 62.6667L202.667 63.3333L202.333 62.6667z"/>
<path style="fill:#1fb0a0; stroke:none;" d="M207 62C204.727 67.5421 206.26 70.5465 211 74L209 62L207 62M217 62L214 74C219.362 71.304 221.501 66.5869 217 62z"/>
<path style="fill:#21655e; stroke:none;" d="M222 62L223 63L222 62z"/>
<path style="fill:#1fb0a0; stroke:none;" d="M249 62C247.008 67.6477 248.156 70.4709 253 74C252.999 69.116 253.729 64.6075 249 62z"/>
<path style="fill:#21655e; stroke:none;" d="M251 62L252 63L251 62z"/>
<path style="fill:#1fb0a0; stroke:none;" d="M259 62L257 74C261.785 70.4319 263.956 66.4232 259 62z"/>
<path style="fill:#21655e; stroke:none;" d="M287 62L288 63L287 62z"/>
<path style="fill:#1fb0a0; stroke:none;" d="M292 62C288.86 67.3206 290.724 69.4318 294 74L295 74L292 62M299 74C303.844 70.471 304.992 67.6477 303 62C298.271 64.6075 299.001 69.116 299 74z"/>
<path style="fill:#21655e; stroke:none;" d="M131 63L132 64L131 63M138 63L139 64L138 63M150 63L151 64L150 63M209 63L210 64L209 63M244 63L245 64L244 63M248 63L249 64L248 63M265 63L266 64L265 63M303 63L304 64L303 63M307 63L308 64L307 63M130 64L131 65L130 64M136 64L137 65L136 64M151 64L152 65L151 64M205.333 64.6667L205.667 65.3333L205.333 64.6667M210 64L211 65L210 64M219 64L220 65L219 64M223 64L224 65L223 64M135 65L136 66L135 65M152 65L153 66L152 65M158 65L159 66L158 65M201 65L202 66L201 65M243 65L244 66L243 65M247 65L248 66L247 65M256 65L258 75L256 65M262 65L263 66L262 65M295 65L294 75C296.789 72.5629 296.361 68.2443 295 65M304 65L305 66L304 65M308 65L309 66L308 65M129 66L130 67L129 66M153 66L154 67L153 66M204.333 66.6667L204.667 67.3333L204.333 66.6667M220 66L221 67L220 66M224 66L225 67L224 66M266 66L267 67L266 66M285 66L286 67L285 66M289 66L290 67L289 66M134 67L135 68L134 67M159 67L160 68L159 67M200 67L201 68L200 67M214 67L215 68L214 67M246 67L247 68L246 67M253.333 67.6667L253.667 68.3333L253.333 67.6667M263 67L264 68L263 67M305 67L306 68L305 67M309 67L310 68L309 67M128 68L129 69L128 68M154 68L155 69L154 68M220 68L221 69L220 68M225.333 68.6667L225.667 69.3333L225.333 68.6667M242 68L243 69L242 68M262 68L263 69L262 68M267 68L268 69L267 68M284.333 68.6667L284.667 69.3333L284.333 68.6667M289 68L290 69L289 68M133 69L134 70L133 69M205 69L206 70L205 69M219 69L220 70L219 69M98.6667 70.3333L99.3333 70.6667L98.6667 70.3333z"/>
<path style="fill:#030808; stroke:none;" d="M176 106L176 104C170.101 101.24 163.378 103 157 103L117 103C108.048 103 97.2696 103.987 92.0895 94.9962C87.2693 86.6297 94.337 72.4238 104.996 75.6566C112.297 77.8708 113.116 85.1176 116 91C121.611 86.9376 117.084 78.2402 112.815 74.5332C105.945 68.5678 96.3065 69.5036 90.2245 76.1049C81.7813 85.2693 85.9464 102.438 98 106.057C106.23 108.528 116.482 107 125 107C141.172 107 160.249 109.75 176 106z"/>
<path style="fill:#21655e; stroke:none;" d="M104 70L104 71L107 71L104 70M155.333 70.6667L155.667 71.3333L155.333 70.6667M160.333 70.6667L160.667 71.3333L160.333 70.6667M199 70L200 71L199 70M206 70L207 71L206 70M214 70L214 73L215 73L214 70M218 70L219 71L218 70M241.333 70.6667L241.667 71.3333L241.333 70.6667M268.333 70.6667L268.667 71.3333L268.333 70.6667M291 70L292 71L291 70M310.333 70.6667L310.667 71.3333L310.333 70.6667M96 71L97 72L96 71M108 71L109 72L108 71M132 71L132 74L133 74L132 71M207 71L208 72L207 71M226.333 71.6667L226.667 72.3333L226.333 71.6667M249 71L250 72L249 71M283.333 71.6667L283.667 72.3333L283.333 71.6667M302 71L303 72L302 71M94 72L95 73L94 72M110 72L111 73L110 72M127 72L127 79L128 79L127 72M198.333 72.6667L198.667 73.3333L198.333 72.6667M202 72L202 73L206 75L202 72M208 72L209 73L208 72M216 72L217 73L216 72z"/>
<path style="fill:#1fb0a0; stroke:none;" d="M222 72C216.777 78.4369 215.019 81.9982 214 90C220.632 86.6692 226.27 79.1306 222 72z"/>
<path style="fill:#21655e; stroke:none;" d="M244.333 72.6667L244.667 73.3333L244.333 72.6667z"/>
<path style="fill:#1fb0a0; stroke:none;" d="M245 72C242.743 80.132 246.375 85.1241 253 90C252.995 81.9312 250.995 77.5635 245 72z"/>
<path style="fill:#21655e; stroke:none;" d="M250 72L251 73L250 72M253.333 72.6667L253.667 73.3333L253.333 72.6667z"/>
<path style="fill:#1fb0a0; stroke:none;" d="M264 72C259.368 78.6094 257.001 81.7531 257 90C262.774 85.5221 269.102 79.1723 264 72z"/>
<path style="fill:#21655e; stroke:none;" d="M265.333 72.6667L265.667 73.3333L265.333 72.6667M286.333 72.6667L286.667 73.3333L286.333 72.6667z"/>
<path style="fill:#1fb0a0; stroke:none;" d="M287 72C285.102 79.9969 288.836 85.0295 295 90C294.999 81.9641 293.293 77.3271 287 72z"/>
<path style="fill:#a5a5a5; stroke:none;" d="M293 72L294 73L293 72z"/>
<path style="fill:#21655e; stroke:none;" d="M298.333 72.6667L298.667 73.3333L298.333 72.6667M301 72L302 73L301 72z"/>
<path style="fill:#1fb0a0; stroke:none;" d="M306 72C301.482 78.4973 299.005 81.9048 299 90C304.777 85.7862 311.474 78.9665 306 72z"/>
<path style="fill:#21655e; stroke:none;" d="M307 72L308 73L307 72M311 72L311 75L312 75L311 72M92 73L93 74L92 73M111 73L112 74L111 73z"/>
<path style="fill:#1fb0a0; stroke:none;" d="M202 73C201.101 80.8416 204.666 85.501 211 90C210.511 82.4236 209.619 76.6283 202 73z"/>
<path style="fill:#21655e; stroke:none;" d="M209 73L210 74L209 73M223.333 73.6667L223.667 74.3333L223.333 73.6667M240.333 73.6667L240.667 74.3333L240.333 73.6667M246 73L247 74L246 73M251 73L252 74L251 73M258 73L259 74L258 73M263 73L264 74L263 73M269 73L269 76L270 76L269 73M288 73L289 74L288 73M293 73L294 74L293 73M300 73L301 74L300 73M305 73L306 74L305 73M91 74L92 75L91 74M113 74L114 75L113 74M210 74L211 75L210 74M214.667 74.3333L215.333 74.6667L214.667 74.3333M227.333 74.6667L227.667 75.3333L227.333 74.6667M247 74L248 75L247 74M252 74L253 75L252 74M262 74L263 75L262 74M282.333 74.6667L282.667 75.3333L282.333 74.6667M299 74L300 75L299 74M304 74L305 75L304 74M90 75L91 76L90 75M98 75L98 76L101 76L98 75M104.667 75.3333L105.333 75.6667L104.667 75.3333M201.333 75.6667L201.667 76.3333L201.333 75.6667M219 75L220 76L219 75M248 75L249 76L248 75M261 75L262 76L261 75M290 75L291 76L290 75M303 75L304 76L303 75M308 75L308 78L309 78L308 75M89 76L90 77L89 76M96 76L97 77L96 76M156 76L157 77L156 76M160 76L161 77L160 76M207 76L208 77L207 76M218 76L219 77L218 76M243.333 76.6667L243.667 77.3333L243.333 76.6667M249 76L250 77L249 76M260 76L261 77L260 76M266.333 76.6667L266.667 77.3333L266.333 76.6667M285 76L285 80L286 80L285 76M291 76L292 77L291 76M302 76L303 77L302 76M95 77L96 78L95 77M109 77L110 78L109 77M115 77L116 78L115 77M132.333 77.6667L132.667 78.3333L132.333 77.6667M157 77L157 78L160 78L157 77M197 77L197 80L198 80L197 77M217 77L218 78L217 77M224 77L224 80L225 80L224 77M259 77L260 78L259 77M292 77L293 78L292 77M312 77L312 80L313 80L312 77M94 78L95 79L94 78M110 78L111 79L110 78M116 78L117 79L116 78M200.333 78.6667L200.667 79.3333L200.333 78.6667M208 78L209 79L208 78M216 78L217 79L216 78M239 78L239 82L240 82L239 78M258 78L259 79L258 78M270 78L270 82L271 82L270 78M293 78L294 79L293 78M87 79L88 80L87 79M93 79L94 80L93 79M209 79L210 80L209 79M215 79L216 80L215 79M281 79L281 92L282 92L281 79M92 80L93 81L92 80M117 80L118 81L117 80M133.333 80.6667L133.667 81.3333L133.333 80.6667M201 80L202 81L201 80M210 80L211 81L210 80M214.333 80.6667L214.667 81.3333L214.333 80.6667M228 80L228 92L229 92L228 80M243 80L244 81L243 80M252 80L253 81L252 80M299 80L300 81L299 80M308 80L309 81L308 80M86.3333 81.6667L86.6667 82.3333L86.3333 81.6667M112 81L113 82L112 81M128.333 81.6667L128.667 82.3333L128.333 81.6667M202 81L203 82L202 81M223 81L224 82L223 81M244 81L245 82L244 81M256 81L258 91L256 81M265 81L266 82L265 81M286 81L287 82L286 81M295 81L295 91L296 91L295 81M307 81L308 82L307 81M91.3333 82.6667L91.6667 83.3333L91.3333 82.6667M203 82L204 83L203 82M245 82L246 83L245 82M264 82L265 83L264 82M287 82L288 83L287 82M306 82L307 83L306 82M113.333 83.6667L113.667 84.3333L113.333 83.6667M118.333 83.6667L118.667 84.3333L118.333 83.6667M134 83L135 84L134 83M196 83L196 89L197 89L196 83M214 83L215 84L214 83M221 83L222 84L221 83M246 83L247 84L246 83M263 83L264 84L263 83M288 83L289 84L288 83M313 83L313 88L314 88L313 83M58 84L58 85L64 85L58 84M135 84L136 85L135 84M220 84L221 85L220 84M247 84L248 85L247 84M253 84L254 85L253 84M262 84L263 85L262 84M289 84L290 85L289 84M298 84L299 85L298 84M304 84L305 85L304 84M55.6667 85.3333L56.3333 85.6667L55.6667 85.3333z"/>
<path style="fill:#030808; stroke:none;" d="M176 120L176 118C165.758 114.973 152.662 117 142 117L72 117C60.1696 117 41.261 110.615 51.8789 95.0432C60.9829 81.6914 68.9439 94.6749 73.5556 102.663C74.499 104.297 76.5152 104.697 77.311 102.663C81.6612 91.5442 64.6611 82.9235 56 85.8542C40.7209 91.0243 41.2174 116.3 57 120.442C64.9204 122.521 74.8451 121 83 121L137 121C149.126 121 164.361 123.44 176 120z"/>
<path style="fill:#21655e; stroke:none;" d="M65.6667 85.3333L66.3333 85.6667L65.6667 85.3333M90 85L90 92L91 92L90 85M136 85L137 86L136 85M200 85L201 86L200 85M219 85L220 86L219 85M221 89C223.236 87.7912 224.578 85.8323 225 89L226 89L226 85L221 89M242 85L242 91L243 91L244 85L242 85M265 86L265 87L267 90L268 90L268 85L265 86M284 85L284 89L285 89L285 86L288 88L284 85M290 85L291 86L290 85M309 85L310 86L309 85M53 86L54 87L53 86M68 86L69 87L68 86M85 86L85 92L86 92L85 86M137 86L138 87L137 86z"/>
<path style="fill:#1fb0a0; stroke:none;" d="M200 86C201.442 93.4339 202.991 98.9077 211 101C210.155 94.675 205.464 89.1292 200 86z"/>
<path style="fill:#21655e; stroke:none;" d="M214 86L214 89L215 89L214 86M218 86L219 87L218 86z"/>
<path style="fill:#1fb0a0; stroke:none;" d="M224 86C219.918 90.1686 214.4 94.7837 215 101C221.085 98.7176 226.711 92.9614 224 86M243 86C243.159 93.4674 245.306 98.9858 253 101C252.518 94.6046 247.822 89.8882 243 86z"/>
<path style="fill:#21655e; stroke:none;" d="M253 86L253 90L254 90L253 86M260 86L261 87L260 86z"/>
<path style="fill:#1fb0a0; stroke:none;" d="M266 86L257 101C263.422 98.9699 268.887 93.082 266 86M285 86C285.332 93.5862 287.621 98.3994 295 101C294.516 94.5757 290.031 89.7032 285 86z"/>
<path style="fill:#21655e; stroke:none;" d="M291 86L292 87L291 86z"/>
<path style="fill:#1fb0a0; stroke:none;" d="M308 86L299 101C307.009 98.9077 308.558 93.4339 310 86L308 86z"/>
<path style="fill:#21655e; stroke:none;" d="M52 87L53 88L52 87M70 87L71 88L70 87M131 87L132 88L131 87M138.667 87.3333L139.333 87.6667L138.667 87.3333M202 87L203 88L202 87M207 87L208 88L207 87M302 87L303 88L302 87M307 87L308 88L307 87M50 88L51 89L50 88M71 88L72 89L71 88M114.333 88.6667L114.667 89.3333L114.333 88.6667M132 88L133 89L132 88M141 88L141 89L172 89L141 88M173 88L174 89L173 88M200 88L200 92L201 92L200 88M203 88L204 89L203 88M208 88L209 89L208 88M210 88L211 89L210 88M216 88L217 89L216 88M298.333 88.6667L298.667 89.3333L298.333 88.6667M301 88L302 89L301 88M309 88L309 92L310 92L309 88M58 89L58 90L64 90L58 89M72 89L73 90L72 89M133 89L134 90L133 89M175 89L176 90L175 89M204 89L205 90L204 89M209 89L210 90L209 89M246 89L247 90L246 89M251 89L252 90L251 89M263 89L264 90L263 89M300 89L301 90L300 89M305 89L306 90L305 89M48 90L49 91L48 90M56 90L57 91L56 90M66 90L67 91L66 90M73 90L74 91L73 90M115 90L116 91L115 90M117 90L118 91L117 90M134 90L135 91L134 90M205 90L206 91L205 90M210 90L211 91L210 90M214 90L215 91L214 90M239 90L239 93L240 93L239 90M247 90L248 91L247 90M252 90L253 91L252 90M270 90L270 93L271 93L270 90M299 90L300 91L299 90M304 90L305 91L304 90M54 91L55 92L54 91M67 91L68 92L67 91M74 91L75 92L74 91M136 91L137 92L136 91M197 91L197 94L198 94L197 91M206 91L207 92L206 91M224.333 91.6667L224.667 92.3333L224.333 91.6667M248 91L249 92L248 91M261 91L262 92L261 91M285.333 91.6667L285.667 92.3333L285.333 91.6667M290 91L291 92L290 91M303 91L304 92L303 91M312 91L312 94L313 94L312 91M47 92L48 93L47 92M53 92L54 93L53 92M138 92L139 93L138 92M175 92L140 93L140 94L176 93L175 92M207 92L208 93L207 92M243.333 92.6667L243.667 93.3333L243.333 92.6667M249 92L250 93L249 92M260 92L261 93L260 92M266.333 92.6667L266.667 93.3333L266.333 92.6667M291 92L292 93L291 92M302 92L303 93L302 92M46 93L47 94L46 93M52 93L53 94L52 93M69 93L70 94L69 93M75 93L76 94L75 93z"/>
<path style="fill:#a5a5a5; stroke:none;" d="M175 93L176 94L175 93z"/>
<path style="fill:#21655e; stroke:none;" d="M201 93L202 94L201 93M217 93L218 94L217 93M250 93L251 94L250 93M259 93L260 94L259 93M292 93L293 94L292 93M308 93L309 94L308 93M70 94L71 95L70 94M86.3333 94.6667L86.6667 95.3333L86.3333 94.6667M91 94L92 95L91 94M216 94L217 95L216 94M223.333 94.6667L223.667 95.3333L223.333 94.6667M227.333 94.6667L227.667 95.3333L227.333 94.6667M251 94L252 95L251 94M258 94L259 95L258 94M269.333 94.6667L269.667 95.3333L269.333 94.6667M282.333 94.6667L282.667 95.3333L282.333 94.6667M293 94L294 95L293 94M300 94L301 95L300 94M51 95L52 96L51 95M76 95L77 96L76 95M209 95L210 96L209 95M215 95L216 96L215 95M240 95L241 96L240 95M244 95L245 96L244 95M257 95L258 96L257 95M265 95L266 96L265 95M286 95L287 96L286 95M294 95L295 96L294 95M311 95L312 96L311 95M45 96L46 97L45 96M50.3333 96.6667L50.6667 97.3333L50.3333 96.6667M92 96L93 97L92 96M198 96L199 97L198 96M210 96L211 97L210 96M214.333 96.6667L214.667 97.3333L214.333 96.6667M222 96L223 97L222 96M226 96L227 97L226 96M264.333 96.6667L264.667 97.3333L264.333 96.6667M283.333 96.6667L283.667 97.3333L283.333 96.6667M287 96L288 97L287 96M77 97L77 100L78 100L77 97M87 97L88 98L87 97M93 97L94 98L93 97M203 97L204 98L203 97M241 97L242 98L241 97M256 97L256 101L257 101L256 97M268 97L269 98L268 97M295 97L295 101L296 101L295 97M306 97L307 98L306 97M310 97L311 98L310 97M72.3333 98.6667L72.6667 99.3333L72.3333 98.6667M94 98L95 99L94 98M204 98L205 99L204 98M220 98L221 99L220 98M225 98L226 99L225 98M246 98L247 99L246 98M284 98L285 99L284 98M305 98L306 99L305 98M44 99L44 107L45 107L44 99M88 99L89 100L88 99M200 99L201 100L200 99M205 99L206 100L205 99M219 99L220 100L219 99M242 99L243 100L242 99M247 99L248 100L247 99M267 99L268 100L267 99M290 99L291 100L290 99M304 99L305 100L304 99M309 99L310 100L309 99M49 100L49 107L50 107L49 100M89 100L90 101L89 100M96 100L97 101L96 100M201 100L202 101L201 100M207.667 100.333L208.333 100.667L207.667 100.333M214 100L215 101L214 100M216.667 100.333L217.333 100.667L216.667 100.333M243 100L244 101L243 100M250 100L251 101L250 100M258.667 100.333L259.333 100.667L258.667 100.333M266 100L267 101L266 100M292.667 100.333L293.333 100.667L292.667 100.333M301 100L302 101L301 100M308 100L309 101L308 100M90 101L91 102L90 101M98 101L99 102L98 101M223 101L224 102L223 101M244 101L245 102L244 101M265 101L266 102L265 101M286 101L287 102L286 101M307 101L308 102L307 101M91 102L92 103L91 102M103 102L103 103L168 103L147 102L103 102M170 102L171 103L170 102M173.667 102.333L174.333 102.667L173.667 102.333M203 102L204 103L203 102M221 102L222 103L221 102M245 102L246 103L245 102M264 102L265 103L264 102M306 102L307 103L306 102M92 103L93 104L92 103M175 103L176 104L175 103M204.667 103.333L205.333 103.667L204.667 103.333M220 103L221 104L220 103M246.667 103.333L247.333 103.667L246.667 103.333M262 103L263 104L262 103M289 103L290 104L289 103M304.667 103.333L305.333 103.667L304.667 103.333M73 104L74 105L73 104M77 104L78 105L77 104M93 104L94 105L93 104M207.667 104.333L208.333 104.667L207.667 104.333M217.667 104.333L218.333 104.667L217.667 104.333M249.667 104.333L250.333 104.667L249.667 104.333M259.667 104.333L260.333 104.667L259.667 104.333M291.667 104.333L292.333 104.667L291.667 104.333M301.667 104.333L302.333 104.667L301.667 104.333M74.6667 105.333L75.3333 105.667L74.6667 105.333M95 105L96 106L95 105M210 105L210 126L211 126L210 105M214 105L215 106L214 105M252 105L253 106L252 105M257 105L258 106L257 105M295 105L295 126L296 126L295 105M299 105L300 106L299 105M98.6667 106.333L99.3333 106.667L98.6667 106.333M174 106L175 107L174 106M256 106L256 126L257 126L256 106M50.3333 108.667L50.6667 109.333L50.3333 108.667M214 108L215 109L214 108M45 109L46 110L45 109M51 110L52 111L51 110M52 112L53 113L52 112M47 113L48 114L47 113M53 113L54 114L53 113M48 115L49 116L48 115M56 115L57 116L56 115M59 116L59 117L175 117L140 116L59 116M214 116L214 120L215 120L214 116M50 117L51 118L50 117M175 117L176 118L175 117M52 118L53 119L52 118M53 119L54 120L53 119M56 120L57 121L56 120M175 120L176 121L175 120M58 121L58 122L175 122L139 121L58 121M214 122L215 123L214 122M253 125L254 126L253 125M298 125L299 126L298 125z"/>
<path style="fill:#030808; stroke:none;" d="M185 130L186 131L185 130M184 132L186 135L186 132L184 132M158.667 133.333L159.333 133.667L158.667 133.333M268.667 133.333L269.333 133.667L268.667 133.333M290.667 133.333L291.333 133.667L290.667 133.333M320 133L321 134L320 133M185 136L185 224L186 224L186 163L185 136z"/>
<path style="fill:#21655e; stroke:none;" d="M215 139L206 149L215 140L216 140L220 144L215 139M67 140L67 141L73 141L67 140M109 141L109 142L117 141L109 141M153 140L153 141L159 141L153 140z"/>
<path style="fill:#030808; stroke:none;" d="M215 140L193 165C200.841 166.108 210.832 151.917 215 146L216 146C219.133 151.137 232.75 170.02 239.04 166.342C244.856 162.941 250.941 149.056 258 149.056C266.651 149.056 272.045 168.887 281 166.654C289 164.66 293.588 149.056 302 149.056C311.274 149.056 313.948 167.825 324 164L324 163L303 140L280 162L279 162L257 140C253.685 144.351 242.835 160.019 236.985 159.948C230.02 159.864 220.605 143.951 215 140z"/>
<path style="fill:#21655e; stroke:none;" d="M258 140L259 141L258 140M301 140L302 141L301 140M65 141L66 142L65 141z"/>
<path style="fill:#030808; stroke:none;" d="M49 160C58.7454 159.265 60.4815 147.423 69 145.832C77.2329 144.294 82.2975 159.882 92 159.966C102.828 160.06 105.195 145.958 114 145.752C121.249 145.582 124.192 158.389 132 159.771C144.441 161.973 146.095 145.867 156 145.867C163.724 145.867 166.348 158.141 174 160C172.869 152.2 163.563 140.436 155 141.124C145.922 141.854 142.927 156.623 133.999 155.549C125.776 154.559 124.168 142.624 115.996 141.232C104.307 139.241 102.92 154.826 92.9961 155.588C80.197 156.571 76.0114 131.201 61.0394 145.109C58.7769 147.21 56.9292 149.702 54.8349 151.961C52.3492 154.641 50.0751 156.472 49 160z"/>
<path style="fill:#21655e; stroke:none;" d="M74 141L75 142L74 141M118 141L119 142L118 141M151 141L152 142L151 141M160 141L161 142L160 141M259 141L260 142L259 141M300 141L301 142L300 141M63 142L64 143L63 142M76 142L77 143L76 142M107 142L108 143L107 142M162 142L163 143L162 142M255 142L256 143L255 142M260 142L261 143L260 142M299 142L300 143L299 142M304 142L305 143L304 142M62 143L63 144L62 143M77 143L78 144L77 143M106 143L107 144L106 143M148 143L149 144L148 143M163 143L164 144L163 143M254 143L255 144L254 143M261 143L262 144L261 143M298 143L299 144L298 143M305 143L306 144L305 143M61 144L62 145L61 144M78 144L79 145L78 144M105 144L106 145L105 144M147 144L148 145L147 144M164 144L165 145L164 144M253 144L254 145L253 144M262 144L263 145L262 144M297 144L298 145L297 144M306 144L307 145L306 144M60 145L61 146L60 145M67 145L67 146L72 146L67 145M79 145L80 146L79 145M112 145L112 146L117 146L112 145M122 145L123 146L122 145M154.667 145.333L155.333 145.667L154.667 145.333M157 145L158 146L157 145M165 145L166 146L165 145M252 145L253 146L252 145M263 145L264 146L263 145M296 145L297 146L296 145M307 145L308 146L307 145M59 146L60 147L59 146M73 146L74 147L73 146M80 146L81 147L80 146M110 146L111 147L110 146M117 146L118 147L117 146M123 146L124 147L123 146M152 146L153 147L152 146M159 146L160 147L159 146M215 146L216 147L215 146M222 146L223 147L222 146M251 146L252 147L251 146M264 146L265 147L264 146M295 146L296 147L295 146M308 146L309 147L308 146M58 147L59 148L58 147M65 147L66 148L65 147M74 147L75 148L74 147M81 147L82 148L81 147M103 147L104 148L103 147M109 147L110 148L109 147M118 147L119 148L118 147M145 147L146 148L145 147M151 147L152 148L151 147M160 147L161 148L160 147M166 147L167 148L166 147M214 147L215 148L214 147M216 147L217 148L216 147M250 147L251 148L250 147M257.667 147.333L258.333 147.667L257.667 147.333M265 147L266 148L265 147M294 147L295 148L294 147M301.667 147.333L302.333 147.667L301.667 147.333M309 147L310 148L309 147M102 148L103 149L102 148M108 148L109 149L108 148M119 148L120 149L119 148M144 148L145 149L144 148M150 148L151 149L150 148M161 148L162 149L161 148M167 148L168 149L167 148M213 148L214 149L213 148M217 148L218 149L217 148M249 148L250 149L249 148M266 148L267 149L266 148M293 148L294 149L293 148M300 148L301 149L300 148M310 148L311 149L310 148M63 149L64 150L63 149M76 149L77 150L76 149M82 149L83 150L82 149M125 149L126 150L125 149M149 149L150 150L149 149M162 149L163 150L162 149M168 149L169 150L168 149M212 149L213 150L212 149M224 149L225 150L224 149M248 149L249 150L248 149M255 149L256 150L255 149M260 149L261 150L260 149M267 149L268 150L267 149M292 149L293 150L292 149M299 149L300 150L299 149M304 149L305 150L304 149M311 149L312 150L311 149M56 150L57 151L56 150M62 150L63 151L62 150M77 150L78 151L77 150M83 150L84 151L83 150M100 150L101 151L100 150M120 150L121 151L120 150M126 150L127 151L126 150M142 150L143 151L142 150M148 150L149 151L148 150M163 150L164 151L163 150M204 150L205 151L204 150M211 150L212 151L211 150M219 150L220 151L219 150M247 150L248 151L247 150M254 150L255 151L254 150M268 150L269 151L268 150M291 150L292 151L291 150M305 150L306 151L305 150M312 150L313 151L312 150M55 151L56 152L55 151M61 151L62 152L61 151M84 151L85 152L84 151M106 151L107 152L106 151M121 151L122 152L121 151M169 151L170 152L169 151M210 151L211 152L210 151M226 151L227 152L226 151M253 151L254 152L253 151M262 151L263 152L262 151M269 151L270 152L269 151M290 151L291 152L290 151M297 151L298 152L297 151M306 151L307 152L306 151M54 152L55 153L54 152M85 152L86 153L85 152M105 152L106 153L105 152M147 152L148 153L147 152M164 152L165 153L164 152M170 152L171 153L170 152M202 152L203 153L202 152M209 152L210 153L209 152M221 152L222 153L221 152M245 152L246 153L245 152M252 152L253 153L252 152M263 152L264 153L263 152M270 152L271 153L270 152M289 152L290 153L289 152M307 152L308 153L307 152M314 152L315 153L314 152M86 153L87 154L86 153M98 153L99 154L98 153M104 153L105 154L104 153M122 153L123 154L122 153M140 153L141 154L140 153M146 153L147 154L146 153M165 153L166 154L165 153M208 153L209 154L208 153M228 153L229 154L228 153M251 153L252 154L251 153M264 153L265 154L264 153M271 153L272 154L271 153M288 153L289 154L288 153M295 153L296 154L295 153M308 153L309 154L308 153M52 154L53 155L52 154M59 154L60 155L59 154M96 154L97 155L96 154M123 154L124 155L123 154M130 154L131 155L130 154M138 154L139 155L138 154M145 154L146 155L145 154M207 154L208 155L207 154M229 154L230 155L229 154M250 154L251 155L250 154M265 154L266 155L265 154M272 154L273 155L272 154M309 154L310 155L309 154M51 155L52 156L51 155M58 155L59 156L58 155M81 155L82 156L81 155M89 155L90 156L89 155M95 155L96 156L95 155M103 155L104 156L103 155M124 155L125 156L124 155M131 155L132 156L131 155M137 155L138 156L137 155M166 155L167 156L166 155M172 155L173 156L172 155M206 155L207 156L206 155M230 155L231 156L230 155M243 155L244 156L243 155M249 155L250 156L249 155M266 155L267 156L266 155M273 155L274 156L273 155M286 155L287 156L286 155M293 155L294 156L293 155M310 155L311 156L310 155M49 156L50 157L49 156M57 156L58 157L57 156M82 156L83 157L82 156M125 156L126 157L125 156M143 156L144 157L143 156M167 156L168 157L167 156M174 156L172 160L172 161C175.012 160.354 175.498 158.613 174 156M205 156L206 157L205 156M231 156L232 157L231 156M248 156L249 157L248 156M267 156L268 157L267 156M274 156L275 157L274 156M311 156L312 157L311 156M56 157L57 158L56 157M83 157L84 158L83 157M126 157L127 158L126 157M142 157L143 158L142 157M198 157L199 158L198 157M225 157L226 158L225 157M232 157L233 158L232 157M241 157L242 158L241 157M268 157L269 158L268 157M275 157L276 158L275 157M284 157L285 158L284 157M291 157L292 158L291 157M312 157L313 158L312 157M318 157L319 158L318 157M55 158L56 159L55 158M85 158L86 159L85 158M99 158L100 159L99 158M127 158L128 159L127 158M141 158L142 159L141 158M169 158L170 159L169 158M203 158L204 159L203 158M226 158L227 159L226 158M233 158L234 159L233 158M240 158L241 159L240 158M269 158L270 159L269 158M276 158L277 159L276 158M313 158L314 159L313 158M54 159L55 160L54 159M86 159L87 160L86 159M97.6667 159.333L98.3333 159.667L97.6667 159.333M129 159L130 160L129 159M139 159L140 160L139 159M170 159L171 160L170 159M196 159L197 160L196 159M227 159L228 160L227 159M234 159L235 160L234 159M239 159L240 160L239 159M270 159L271 160L270 159M277 159L278 160L277 159M282 159L283 160L282 159M320 159L321 160L320 159M49 160L49 161L52 161L49 160M89 160L89 161L96 161L89 160M131 160L131 161L138 161L131 160M195 160L196 161L195 160M228 160L229 161L228 160M235 160L236 161L235 160M238 160L239 161L238 160M271 160L272 161L271 160M278 160L279 161L278 160M315 160L316 161L315 160M321 160L322 161L321 160M194 161L195 162L194 161M229 161L230 162L229 161M237 161L238 162L237 161M272 161L273 162L272 161M279 161L280 162L279 161M322 161L323 162L322 161M193 162L194 163L193 162z"/>
<path style="fill:#030808; stroke:none;" d="M214 162C209.006 169.035 191.291 179.728 195 189L196 189C200.046 184.607 208.558 171.056 215 171.056C221.382 171.056 231.638 186.638 236 191L237 191L252 175.008L258.96 170.876L279 188.793L303 169L319 188L324 186L324 185C319.809 180.809 307.481 163.359 301.169 163.882C293.389 164.527 284.299 179.563 278 184L258 162L257 162L238 184C229.926 180.203 221.168 169.281 216 162L214 162z"/>
<path style="fill:#21655e; stroke:none;" d="M230 162L231 163L230 162M256 162L257 163L256 162M273 162L274 163L273 162M301.667 162.333L302.333 162.667L301.667 162.333M323 162L324 163L323 162M192.333 163.667L192.667 164.333L192.333 163.667M199 163L200 164L199 163M213 163L214 164L213 163M216 163L217 164L216 163M231 163L232 164L231 163M242 163L243 164L242 163M274 163L275 164L274 163M303 163L304 164L303 163M324 163L325 164L324 163M232 164L233 165L232 164M275 164L276 165L275 164M304 164L305 165L304 164M323 164L324 165L323 164M193 165L194 166L193 165M197 165L198 166L197 165M211 165L212 166L211 165M218 165L219 166L218 165M240 165L241 166L240 165M276 165L277 166L276 165M298 165L299 166L298 165M319 165L320 166L319 165M322 165L323 166L322 165M64 167L64 168L68 167L64 167z"/>
<path style="fill:#030808; stroke:none;" d="M49 186C58.1855 184.977 61.7009 171.636 70 171.636C78.695 171.636 81.9547 185.676 92 185.941C102.697 186.224 105.107 171.636 113.996 171.636C121.163 171.636 124.284 184.174 132 185.721C144.366 188.199 145.876 172.38 155.576 171.315C162.536 170.551 167.179 184.069 174 186C172.905 178.772 164.187 166.427 156 166.427C146.217 166.427 143.24 182.183 134 181.338C125.516 180.562 123.836 167.751 115 166.488C104.392 164.972 102.216 180.098 93.0008 181.433C80.6235 183.226 76.5015 156.731 61.5147 170.105C58.9367 172.406 57.0551 175.387 54.7045 177.9C52.0781 180.708 49.6699 182.091 49 186z"/>
<path style="fill:#21655e; stroke:none;" d="M72.6667 166.333L73.3333 166.667L72.6667 166.333M110.667 166.333L111.333 166.667L110.667 166.333M116.667 166.333L117.333 166.667L116.667 166.333M152.667 166.333L153.333 166.667L152.667 166.333M158.667 166.333L159.333 166.667L158.667 166.333M195.667 166.333L196.333 166.667L195.667 166.333M210 166L211 167L210 166M219 166L220 167L219 166M234 166L235 167L234 166M239 166L240 167L239 166M277 166L278 167L277 166M320.667 166.333L321.333 166.667L320.667 166.333M74.6667 167.333L75.3333 167.667L74.6667 167.333M108 167L109 168L108 167M118 167L119 168L118 167M151 167L152 168L151 167M160 167L161 168L160 167M209 167L210 168L209 167M220 167L221 168L220 167M238 167L239 168L238 167M252 167L253 168L252 167M278 167L279 168L278 167M76 168L77 169L76 168M107 168L108 169L107 168M120 168L121 169L120 168M149 168L150 169L149 168M162 168L163 169L162 168M208 168L209 169L208 168M221 168L222 169L221 168M236.667 168.333L237.333 168.667L236.667 168.333M251 168L252 169L251 168M279 168L280 169L279 168M77 169L78 170L77 169M106 169L107 170L106 169M121 169L122 170L121 169M148 169L149 170L148 169M163 169L164 170L163 169M207 169L208 170L207 169M222 169L223 170L222 169M250 169L251 170L250 169z"/>
<path style="fill:#a5a5a5; stroke:none;" d="M301 169L302 170L301 169z"/>
<path style="fill:#21655e; stroke:none;" d="M302 169L303 170L302 169M308 169L309 170L308 169M147 170L148 171L147 170M155 170L156 171L155 170M164 170L165 171L164 170M206 170L207 171L206 170M216 170L217 171L216 170M223 170L224 171L223 170M249 170L250 171L249 170M259 170L260 171L259 170M303 170L304 171L303 170M60 171L61 172L60 171M67 171L68 172L67 171M72 171L73 172L72 171M79 171L80 172L79 171M104 171L105 172L104 171M111.667 171.333L112.333 171.667L111.667 171.333M116 171L117 172L116 171M146 171L147 172L146 171M153 171L154 172L153 171M158 171L159 172L158 171M165 171L166 172L165 171M205 171L206 172L205 171M212 171L213 172L212 171M217 171L218 172L217 171M224 171L225 172L224 171M248 171L249 172L248 171M310 171L311 172L310 171M80 172L81 173L80 172M103 172L104 173L103 172M110 172L111 173L110 172M145 172L146 173L145 172M166 172L167 173L166 172M204 172L205 173L204 172M211 172L212 173L211 172M218 172L219 173L218 172M225 172L226 173L225 172M247 172L248 173L247 172M261 172L262 173L261 172M305 172L306 173L305 172M58 173L59 174L58 173z"/>
<path style="fill:#a5a5a5; stroke:none;" d="M65 173L66 174L65 173z"/>
<path style="fill:#21655e; stroke:none;" d="M81 173L82 174L81 173M109 173L110 174L109 173M118 173L119 174L118 173M124 173L125 174L124 173M151 173L152 174L151 173M160 173L161 174L160 173M203 173L204 174L203 173M210 173L211 174L210 173M219 173L220 174L219 173M246 173L247 174L246 173M253 173L254 174L253 173M268 173L269 174L268 173M312 173L313 174L312 173M57 174L58 175L57 174M82 174L83 175L82 174M108 174L109 175L108 174M119 174L120 175L119 174M125 174L126 175L125 174M202 174L203 175L202 174M209 174L210 175L209 174M220 174L221 175L220 174M227 174L228 175L227 174M245 174L246 175L245 174M263 174L264 175L263 174M313 174L314 175L313 174M76 175L77 176L76 175M101 175L102 176L101 175M107 175L108 176L107 175M143 175L144 176L143 175M149 175L150 176L149 175M162 175L163 176L162 175M168 175L169 176L168 175M208 175L209 176L208 175M221 175L222 176L221 175M244 175L245 176L244 175M251 175L252 176L251 175M270 175L271 176L270 175M314 175L315 176L314 175M77 176L78 177L77 176M100 176L101 177L100 176M106 176L107 177L106 176M120 176L121 177L120 176M126 176L127 177L126 176M142 176L143 177L142 176M148 176L149 177L148 176M163 176L164 177L163 176M169 176L170 177L169 176M200 176L201 177L200 176M207 176L208 177L207 176M222 176L223 177L222 176M243 176L244 177L243 176M250 176L251 177L250 176M265 176L266 177L265 176M286 176L287 177L286 176M293 176L294 177L293 176M315 176L316 177L315 176M55 177L56 178L55 177M61 177L62 178L61 177M78 177L79 178L78 177M84 177L85 178L84 177M121 177L122 178L121 177M127 177L128 178L127 177M206 177L207 178L206 177M223 177L224 178L223 177M249 177L250 178L249 177M272 177L273 178L272 177M309 177L310 178L309 177M316 177L317 178L316 177M54 178L55 179L54 178M60 178L61 179L60 178M79 178L80 179L79 178M105 178L106 179L105 178M128 178L129 179L128 178M140 178L141 179L140 178M170 178L171 179L170 178M198 178L199 179L198 178M205 178L206 179L205 178M224 178L225 179L224 178M241 178L242 179L241 178M248 178L249 179L248 178M267 178L268 179L267 178M284 178L285 179L284 178M291 178L292 179L291 178M317 178L318 179L317 178M53 179L54 180L53 179M86 179L87 180L86 179M104 179L105 180L104 179M122 179L123 180L122 179M129 179L130 180L129 179M146 179L147 180L146 179M165 179L166 180L165 179M204 179L205 180L204 179M231 179L232 180L231 179M247 179L248 180L247 179M274 179L275 180L274 179M311 179L312 180L311 179M318 179L319 180L318 179M52 180L53 181L52 180M88 180L89 181L88 180M96 180L97 181L96 180M103 180L104 181L103 180M130 180L131 181L130 180M138 180L139 181L138 180M145 180L146 181L145 180M166 180L167 181L166 180M203 180L204 181L203 180M232 180L233 181L232 180M246 180L247 181L246 180M269 180L270 181L269 180M282 180L283 181L282 180M289 180L290 181L289 180M312 180L313 181L312 180M319 180L320 181L319 180M50 181L51 182L50 181M58 181L59 182L58 181M89 181L89 182L95 182L89 181M124 181L125 182L124 181M132 181L132 182L137 182L132 181M144 181L145 182L144 181M173 181L174 182L173 181M202 181L203 182L202 181M233 181L234 182L233 181M276 181L277 182L276 181M313 181L314 182L313 181M57 182L58 183L57 182M83 182L84 183L83 182M101 182L102 183L101 182M125 182L126 183L125 182M143 182L144 183L143 182M167 182L168 183L167 182M174 182L173 187L174 182M201 182L202 183L201 182M234 182L235 183L234 182M244 182L245 183L244 182M280 182L281 183L280 182M287 182L288 183L287 182M314 182L315 183L314 182M321 182L322 183L321 182M56 183L57 184L56 183M100 183L101 184L100 183M126 183L127 184L126 183M142 183L143 184L142 183M168 183L169 184L168 183M194 183L195 184L194 183M200 183L201 184L200 183M228 183L229 184L228 183M235 183L236 184L235 183M237 183L238 184L237 183M278 183L279 184L278 183M286 183L287 184L286 183M315 183L316 184L315 183M85 184L86 185L85 184M99 184L100 185L99 184M128 184L129 185L128 184M140 184L141 185L140 184M169 184L170 185L169 184M193 184L194 185L193 184z"/>
<path style="fill:#030808; stroke:none;" d="M214 184L192 209C202.124 212.31 205.328 195.485 214 193.207C219.743 191.698 232.086 209.086 236 213L237 213L257 191L258 191C261.53 196.011 275.196 214.041 282 210.338C288.499 206.801 294.116 193.857 301.486 192.77C305.692 192.15 313.715 204.107 316.575 206.847C317.614 207.843 321.551 210.959 322.079 207.663C322.646 204.128 317.137 200.147 315.001 198C312.194 195.179 306.319 186.156 301.96 186.203C293.728 186.292 286.601 206.24 278.816 204.458C269.601 202.35 265.28 188.24 256 185C252.48 189.619 242.766 203.542 236.91 204.369C231.301 205.161 219.026 188.295 216 184L214 184z"/>
<path style="fill:#21655e; stroke:none;" d="M242 184L243 185L242 184M256.667 184.333L257.333 184.667L256.667 184.333M285 184L286 185L285 184M301.667 184.333L302.333 184.667L301.667 184.333M316 184L317 185L316 184M323 184L324 185L323 184M53 185L54 186L53 185M87 185L88 186L87 185M97 185L98 186L97 185M129 185L130 186L129 185M139 185L140 186L139 185M170 185L171 186L170 185M192.333 185.667L192.667 186.333L192.333 185.667M213 185L214 186L213 185M216 185L217 186L216 185M230 185L231 186L230 185M258 185L259 186L258 185M284 185L285 186L284 185M300 185L301 186L300 185M317 185L318 186L317 185M49.6667 186.333L50.3333 186.667L49.6667 186.333M90 186L90 187L95 187L90 186M132 186L132 187L137 187L132 186M212 186L213 187L212 186M217 186L218 187L217 186M240 186L241 187L240 186M283 186L284 187L283 186M299 186L300 187L299 186M318 186L319 187L318 186M323 186L324 187L323 186M193 187L194 188L193 187M211 187L212 188L211 187M218 187L219 188L218 187M232 187L233 188L232 187M254 187L255 188L254 187M260 187L261 188L260 187M275 187L276 188L275 187M282 187L283 188L282 187M298 187L299 188L298 187M322 187L323 188L322 187M194 188L195 189L194 188M210 188L211 189L210 188M219 188L220 189L219 188M233 188L234 189L233 188M253 188L254 189L253 188M281 188L282 189L281 188M297 188L298 189L297 188M320 188L321 189L320 188M209 189L210 190L209 189M220 189L221 190L220 189M234 189L235 190L234 189M238 189L239 190L238 189M252 189L253 190L252 189M262 189L263 190L262 189M277 189L278 190L277 189M280 189L281 190L280 189M296 189L297 190L296 189M306 189L307 190L306 189M208 190L209 191L208 190M221 190L222 191L221 190M235 190L236 191L235 190M237 190L238 191L237 190M251 190L252 191L251 190M279 190L280 191L279 190M295 190L296 191L295 190M207 191L208 192L207 191M214.667 191.333L215.333 191.667L214.667 191.333M250 191L251 192L250 191M257 191L258 192L257 191M264 191L265 192L264 191M294 191L295 192L294 191M301 191L302 192L301 191M308 191L309 192L308 191M64 194L67 193L64 194z"/>
<path style="fill:#030808; stroke:none;" d="M49 212C58.3686 210.303 60.6712 198.808 69.0039 197.137C77.6761 195.397 82.5739 212.292 93 211.852C102.637 211.445 105.739 197.456 113.999 197.346C121.045 197.251 124.433 209.965 132 211.602C144.484 214.302 146.184 197.028 156.011 197.028C163.31 197.028 166.953 209.584 174 212C172.882 204.621 164.381 192.114 156 192.214C146.234 192.33 143.468 207.762 134.001 207.092C125.983 206.524 123.78 194.436 116 192.438C104.682 189.532 102.708 205.844 93 207.119C80.8628 208.713 76.9672 183.087 62.0895 195.394C59.4798 197.553 57.5069 200.408 55.2469 202.907C52.4869 205.959 49.704 207.817 49 212z"/>
<path style="fill:#21655e; stroke:none;" d="M73 192L74 193L73 192M109 192L110 193L109 192M117 192L118 193L117 192M152 192L153 193L152 192M159.667 192.333L160.333 192.667L159.667 192.333M206 192L207 193L206 192M213 192L214 193L213 192M216 192L217 193L216 192M223 192L224 193L223 192M249 192L250 193L249 192M303 192L304 193L303 192M309 192L310 193L309 192M75 193L76 194L75 193M108 193L109 194L108 193M119 193L120 194L119 193M150 193L151 194L150 193M161 193L162 194L161 193M205 193L206 194L205 193M212 193L213 194L212 193M217 193L218 194L217 193M248 193L249 194L248 193M255 193L256 194L255 193M266 193L267 194L266 193M292 193L293 194L292 193M299 193L300 194L299 193M310 193L311 194L310 193M62 194L63 195L62 194M106 194L107 195L106 194M120 194L121 195L120 194M149 194L150 195L149 194M204 194L205 195L204 194M211 194L212 195L211 194M218 194L219 195L218 194M225 194L226 195L225 194M247 194L248 195L247 194M254 194L255 195L254 194M291 194L292 195L291 194M311 194L312 195L311 194M61 195L62 196L61 195M121 195L122 196L121 195M148 195L149 196L148 195M210 195L211 196L210 195M219 195L220 196L219 195M253 195L254 196L253 195M268 195L269 196L268 195M290 195L291 196L290 195M297 195L298 196L297 195M305 195L306 196L305 195M312 195L313 196L312 195M60 196L61 197L60 196M68 196L68 197L72 197L68 196M79 196L80 197L79 196M113 196L113 197L116 197L113 196M122 196L123 197L122 196M147 196L148 197L147 196M154 196L154 197L158 197L154 196M202 196L203 197L202 196M209 196L210 197L209 196M220 196L221 197L220 196M245 196L246 197L245 196M252 196L253 197L252 196M269 196L270 197L269 196M306 196L307 197L306 196M313 196L314 197L313 196M72 197L73 198L72 197M104 197L105 198L104 197M111 197L112 198L111 197M116 197L117 198L116 197M146 197L147 198L146 197M153 197L154 198L153 197M158 197L159 198L158 197M165 197L166 198L165 197M208 197L209 198L208 197M221 197L222 198L221 197M251 197L252 198L251 197M263 197L264 198L263 197M270 197L271 198L270 197M288 197L289 198L288 197M295 197L296 198L295 197M307 197L308 198L307 197M314 197L315 198L314 197M65 198L66 199L65 198M74 198L75 199L74 198M103 198L104 199L103 198M145 198L146 199L145 198M151 198L152 199L151 198M160 198L161 199L160 198M166 198L167 199L166 198M200 198L201 199L200 198M207 198L208 199L207 198M222 198L223 199L222 198M250 198L251 199L250 198M271 198L272 199L271 198M308 198L309 199L308 198M315 198L316 199L315 198M58 199L59 200L58 199M64 199L65 200L64 199M75 199L76 200L75 199M81 199L82 200L81 199M109 199L110 200L109 199M124 199L125 200L124 199M161 199L162 200L161 199M167 199L168 200L167 199M206 199L207 200L206 199M229 199L230 200L229 199M249 199L250 200L249 199M272 199L273 200L272 199M286 199L287 200L286 199M309 199L310 200L309 199M57 200L58 201L57 200M63 200L64 201L63 200M76 200L77 201L76 200M82 200L83 201L82 200M119 200L120 201L119 200M125 200L126 201L125 200M205 200L206 201L205 200M230 200L231 201L230 200M248 200L249 201L248 200M273 200L274 201L273 200M310 200L311 201L310 200M317 200L318 201L317 200M25 201L25 207L26 207L25 201M56 201L57 202L56 201M83 201L84 202L83 201M101 201L102 202L101 201M107 201L108 202L107 201M120 201L121 202L120 201M143 201L144 202L143 201M149 201L150 202L149 201M162 201L163 202L162 201M168 201L169 202L168 201M204 201L205 202L204 201M224 201L225 202L224 201M231 201L232 202L231 201M247 201L248 202L247 201M274 201L275 202L274 201M311 201L312 202L311 201M344 201L344 207L345 207L344 201M8 202L8 205L9 205L8 202M84 202L85 203L84 202M100 202L101 203L100 202M106 202L107 203L106 202M142 202L143 203L142 202M148 202L149 203L148 202M163 202L164 203L163 202M169 202L170 203L169 202M203 202L204 203L203 202M232 202L233 203L232 202M246 202L247 203L246 202M275 202L276 203L275 202M282.333 202.667L282.667 203.333L282.333 202.667M312 202L313 203L312 202M319 202L320 203L319 202M61 203L62 204L61 203M78 203L79 204L78 203M99 203L100 204L99 203M121 203L122 204L121 203M127 203L128 204L127 203M141 203L142 204L141 203M147 203L148 204L147 203M164 203L165 204L164 203M196 203L197 204L196 203M226 203L227 204L226 203M233 203L234 204L233 203M239 203L240 204L239 203M269 203L270 204L269 203M276 203L277 204L276 203M313 203L314 204L313 203M361 203L361 206L362 206L361 203M60 204L61 205L60 204M79 204L80 205L79 204M86 204L87 205L86 204M98 204L99 205L98 204M122 204L123 205L122 204M128 204L129 205L128 204M140 204L141 205L140 204M146 204L147 205L146 204M170 204L171 205L170 204M195 204L196 205L195 204M234 204L235 205L234 204M238 204L239 205L238 204M244 204L245 205L244 204M277 204L278 205L277 204M314 204L315 205L314 204z"/>
<path style="fill:#a5a5a5; stroke:none;" d="M8 205L8 209L9 209L8 205z"/>
<path style="fill:#21655e; stroke:none;" d="M53 205L54 206L53 205M59 205L60 206L59 205M80 205L81 206L80 205M87 205L88 206L87 205M97 205L98 206L97 205M104 205L105 206L104 205M129 205L130 206L129 205M139 205L140 206L139 205M165 205L166 206L165 205M171 205L172 206L171 205M194 205L195 206L194 205M228 205L229 206L228 205M235 205L236 206L235 205M237 205L238 206L237 205M271 205L272 206L271 205M278 205L279 206L278 205M280 205L281 206L280 205M315 205L316 206L315 205M81 206L82 207L81 206M88.6667 206.333L89.3333 206.667L88.6667 206.333M95 206L96 207L95 206M103 206L104 207L103 206M131 206L132 207L131 206M137 206L138 207L137 206M166 206L167 207L166 206M172 206L173 207L172 206M193 206L194 207L193 206M229 206L230 207L229 206M272 206L273 207L272 206M316 206L317 207L316 206z"/>
<path style="fill:#a5a5a5; stroke:none;" d="M361 206L361 210L362 210L361 206z"/>
<path style="fill:#21655e; stroke:none;" d="M49.6667 207.333L50.3333 207.667L49.6667 207.333M90 207L90 208L94 208L90 207M102 207L103 208L102 207M124 207L125 208L124 207M132 207L132 208L136 208L132 207M144 207L145 208L144 207M173 207L174 208L173 207M192 207L193 208L192 207M199 207L200 208L199 207M230 207L231 208L230 207M242 207L243 208L242 207M273 207L274 208L273 207M323.333 207.667L323.667 208.333L323.333 207.667M83 208L84 209L83 208M101 208L102 209L101 208M143 208L144 209L143 208M174 208L174 212L175 212L174 208M231 208L232 209L231 208M274 208L275 209L274 208M56 209L57 210L56 209M84 209L85 210L84 209M100 209L101 210L100 209M168 209L169 210L168 209M197 209L198 210L197 209M232 209L233 210L232 209M275 209L276 210L275 209M322 209L323 210L322 209M54 210L55 211L54 210M86 210L87 211L86 210M98 210L99 211L98 210M128 210L129 211L128 210M140 210L141 211L140 210M194 210L195 211L194 210M196 210L197 211L196 210M233 210L234 211L233 210M239 210L240 211L239 210M276 210L277 211L276 210M320.667 210.333L321.333 210.667L320.667 210.333M9.33333 211.667L9.66667 212.333L9.33333 211.667M26 211L26 214L27 214L26 211M52.6667 211.333L53.3333 211.667L52.6667 211.333M87.6667 211.333L88.3333 211.667L87.6667 211.333M96.6667 211.333L97.3333 211.667L96.6667 211.333M130 211L131 212L130 211M138 211L139 212L138 211M171 211L172 212L171 211M195 211L196 212L195 211M234 211L235 212L234 211M238 211L239 212L238 211M277 211L278 212L277 211M343 211L343 214L344 214L343 211M235 212L236 213L235 212M237 212L238 213L237 212M278.667 212.333L279.333 212.667L278.667 212.333M360.333 212.667L360.667 213.333L360.333 212.667z"/>
<path style="fill:#a5a5a5; stroke:none;" d="M9 213L9 216L10 216L9 213z"/>
<path style="fill:#21655e; stroke:none;" d="M236 213L237 214L236 213z"/>
<path style="fill:#a5a5a5; stroke:none;" d="M360.333 214.667L360.667 215.333L360.333 214.667z"/>
<path style="fill:#21655e; stroke:none;" d="M27 216L27 219L28 219L27 216M342 216L342 219L343 219L342 216M10 218L11 219L10 218M359.333 218.667L359.667 219.333L359.333 218.667z"/>
<path style="fill:#a5a5a5; stroke:none;" d="M10.3333 219.667L10.6667 220.333L10.3333 219.667M359.333 220.667L359.667 221.333L359.333 220.667z"/>
<path style="fill:#21655e; stroke:none;" d="M28.3333 222.667L28.6667 223.333L28.3333 222.667M341.333 222.667L341.667 223.333L341.333 222.667M11 223L12 224L11 223M358.333 223.667L358.667 224.333L358.333 223.667z"/>
<path style="fill:#a5a5a5; stroke:none;" d="M11.3333 224.667L11.6667 225.333L11.3333 224.667M358 225L359 226L358 225z"/>
<path style="fill:#21655e; stroke:none;" d="M29.3333 226.667L29.6667 227.333L29.3333 226.667M340.333 226.667L340.667 227.333L340.333 226.667M12.3333 227.667L12.6667 228.333L12.3333 227.667M357 228L358 229L357 228z"/>
<path style="fill:#a5a5a5; stroke:none;" d="M12 229L13 230L12 229M357.333 229.667L357.667 230.333L357.333 229.667z"/>
<path style="fill:#21655e; stroke:none;" d="M30.3333 230.667L30.6667 231.333L30.3333 230.667M339.333 230.667L339.667 231.333L339.333 230.667M13 231L14 232L13 231z"/>
<path style="fill:#a5a5a5; stroke:none;" d="M13.3333 232.667L13.6667 233.333L13.3333 232.667z"/>
<path style="fill:#21655e; stroke:none;" d="M356 232L357 233L356 232M31 233L32 234L31 233M338.333 233.667L338.667 234.333L338.333 233.667z"/>
<path style="fill:#a5a5a5; stroke:none;" d="M356 233L357 234L356 233z"/>
<path style="fill:#21655e; stroke:none;" d="M14 235L15 236L14 235M227 235L227 236L230 236L227 235M355 235L356 236L355 235z"/>
<path style="fill:#a5a5a5; stroke:none;" d="M14 236L15 237L14 236z"/>
<path style="fill:#21655e; stroke:none;" d="M32.3333 236.667L32.6667 237.333L32.3333 236.667M54 266L55 266L55 237L68 238C50.4364 224.694 54 257.562 54 266M77 237L77 238L90 237L90 266C91.884 261.51 93.5074 240.284 89.3966 237.028C86.4461 234.691 80.2221 236.048 77 237M102 237L102 238L115 238C111.261 235.167 106.345 235.716 102 237M128 236L128 237L136 237L128 236M146 247L147 247L147 237L156 237C147.173 233.297 146.001 239.911 146 247M169 236L169 237L179 237L169 236M192 266L193 266L193 237L208 237C187.344 228.333 192 253.542 192 266M225 236C222.887 239.986 222.684 242.749 226 246L225 236z"/>
<path style="fill:#030808; stroke:none;" d="M254 245C249.128 240.025 239.545 242 233 242C231.946 235.391 223.079 234.858 224.377 241.946C225.688 249.112 248.753 246.551 254 245z"/>
<path style="fill:#21655e; stroke:none;" d="M231 236L232 237L231 236M264 236L264 237L274 237L264 236M292 236L292 237L304 237L292 236M337.333 236.667L337.667 237.333L337.333 236.667z"/>
<path style="fill:#a5a5a5; stroke:none;" d="M355.333 236.667L355.667 237.333L355.333 236.667z"/>
<path style="fill:#030808; stroke:none;" d="M55 237L55 266L64 266L64 250L65 250L70 266C77.0119 264.856 78.5941 256.074 80 250L81 250L81 266L90 266L90 237C78.5327 237 76.529 239.154 73 250C66.9256 240.227 67.5196 237 55 237M92 266L108.012 262.078L125 266C122.96 257.393 117.278 231.6 104.278 237.603C98.3587 240.337 93.6726 259.885 92 266M127 237L127 266L136 266L136 255L147 255L147 266L156 266L156 237L147 237L147 247L137 248L136 237L127 237M168 237L158 266L168 266C170.607 261.271 175.116 262.001 180 262C181.56 266.7 185.654 265.997 190 266C189.336 259.378 184.981 242.049 179.351 238.028C176.545 236.024 171.271 237 168 237z"/>
<path style="fill:#21655e; stroke:none;" d="M180.333 237.667L180.667 238.333L180.333 237.667z"/>
<path style="fill:#030808; stroke:none;" d="M193 237L193 266C200.398 266 209.427 267.352 215.985 263.157C224.582 257.657 224.081 243.788 214.985 239.1C208.515 235.766 200.034 237 193 237z"/>
<path style="fill:#21655e; stroke:none;" d="M210.667 237.333L211.333 237.667L210.667 237.333M232 237L233 238L232 237M262 237L263 238L262 237z"/>
<path style="fill:#030808; stroke:none;" d="M273 257L273 258L259 256C248.067 274.287 295.825 265.241 278.772 250.649C274.681 247.149 268.913 247.682 265 244C272.134 244.079 276.696 247.198 281 240C275.35 237.363 268.142 235.407 262.04 238.009C256.181 240.508 254.113 248.079 259.228 252.487C262.798 255.563 268.591 255.859 273 257z"/>
<path style="fill:#21655e; stroke:none;" d="M275 237L276 238L275 237z"/>
<path style="fill:#030808; stroke:none;" d="M282 266C286.346 265.997 290.44 266.7 292 262C296.884 262.001 301.393 261.271 304 266L314 266L304 237C300.783 237 295.43 236.002 292.699 238.028C287.122 242.165 282.984 259.336 282 266z"/>
<path style="fill:#21655e; stroke:none;" d="M15 238L16 239L15 238M214 238L215 239L214 238M260 238L261 239L260 238M278 238L279 239L278 238M291 238L292 239L291 238M304.333 238.667L304.667 239.333L304.333 238.667z"/>
<path style="fill:#a5a5a5; stroke:none;" d="M15 239L16 240L15 239z"/>
<path style="fill:#21655e; stroke:none;" d="M33 239L34 240L33 239M76 239L77 240L76 239M115 239L116 240L115 239M167 239L168 240L167 239M216 239L217 240L216 239M233 239L233 242L234 242L233 239M279 239L280 240L279 239M336 239L337 240L336 239M354 239L355 240L354 239M68 240L69 241L68 240M101 240L102 241L101 240M181 240L182 241L181 240M217 240L218 241L217 240z"/>
<path style="fill:#1fb0a0; stroke:none;" d="M228.333 240.667L228.667 241.333L228.333 240.667z"/>
<path style="fill:#21655e; stroke:none;" d="M290.333 240.667L290.667 241.333L290.333 240.667z"/>
<path style="fill:#a5a5a5; stroke:none;" d="M354 240L355 241L354 240z"/>
<path style="fill:#21655e; stroke:none;" d="M16 241L17 242L16 241M166 241L167 242L166 241M218 241L219 242L218 241M229 241L230 242L229 241M257 241L258 242L257 241M280 241L281 242L280 241M305 241L306 242L305 241z"/>
<path style="fill:#a5a5a5; stroke:none;" d="M16 242L17 243L16 242z"/>
<path style="fill:#21655e; stroke:none;" d="M34 242L35 243L34 242M69 242L70 243L69 242M75 242L76 243L75 242M100.333 242.667L100.667 243.333L100.333 242.667M116 242L117 243L116 242M252 242L253 243L252 242M256 242L257 243L256 242M279 242L280 243L279 242M335.333 242.667L335.667 243.333L335.333 242.667M353 242L354 243L353 242M182 243L183 244L182 243M220 243L221 244L220 243M253 243L254 244L253 243M289 243L290 244L289 243z"/>
<path style="fill:#a5a5a5; stroke:none;" d="M353 243L354 244L353 243z"/>
<path style="fill:#21655e; stroke:none;" d="M17 244L18 245L17 244M35.3333 244.667L35.6667 245.333L35.3333 244.667M74.3333 244.667L74.6667 245.333L74.3333 244.667M117.333 244.667L117.667 245.333L117.333 244.667M165 244L166 245L165 244M202 244L202 245L208 245L202 244M265.333 244.667L265.667 245.333L265.333 244.667M270 244L270 245L273 245L270 244M306 244L307 245L306 244M334.333 244.667L334.667 245.333L334.333 244.667z"/>
<path style="fill:#a5a5a5; stroke:none;" d="M17 245L18 246L17 245z"/>
<path style="fill:#21655e; stroke:none;" d="M70 245L71 246L70 245M99 245L100 246L99 245M183 245L184 246L183 245z"/>
<path style="fill:#1fb0a0; stroke:none;" d="M202 245L202 258C215.269 257.852 215.298 245.12 202 245z"/>
<path style="fill:#21655e; stroke:none;" d="M209 245L210 246L209 245M221 245L222 246L221 245M253 245L254 246L253 245M273 245L274 246L273 245M277 245L278 246L277 245M288.333 245.667L288.667 246.333L288.333 245.667z"/>
<path style="fill:#a5a5a5; stroke:none;" d="M352 245L353 246L352 245z"/>
<path style="fill:#21655e; stroke:none;" d="M108 246L109 247L108 246M164.333 246.667L164.667 247.333L164.333 246.667M174 246L172 252L173 252L174 246M211 246L212 247L211 246M227 246L227 247L253 247L227 246M267 246L267 247L270 247L267 246M275.667 246.333L276.333 246.667L275.667 246.333M297 246L299 249L297 246M307 246L308 247L307 246M18 247L19 248L18 247M36 247L37 248L36 247M71.3333 247.667L71.6667 248.333L71.3333 247.667M73.3333 247.667L73.6667 248.333L73.3333 247.667M98.3333 247.667L98.6667 248.333L98.3333 247.667z"/>
<path style="fill:#1fb0a0; stroke:none;" d="M108 247L106 254L111 254L108 247z"/>
<path style="fill:#21655e; stroke:none;" d="M118 247L119 248L118 247M137 247L138 248L137 247M272.667 247.333L273.333 247.667L272.667 247.333M333 247L334 248L333 247M351 247L352 248L351 247z"/>
<path style="fill:#a5a5a5; stroke:none;" d="M18 248L19 249L18 248z"/>
<path style="fill:#21655e; stroke:none;" d="M109 248L110 249L109 248z"/>
<path style="fill:#1fb0a0; stroke:none;" d="M174 248L172 255L176 254L174 248z"/>
<path style="fill:#21655e; stroke:none;" d="M184 248L185 249L184 248M212 248L213 249L212 248M222 248L222 254L223 254L222 248M226 248L224 256L227 255L227 254L226 248z"/>
<path style="fill:#030808; stroke:none;" d="M225 255L252 255C251.156 249.597 247.343 246.637 243 251L242 251C239.074 248.057 236.926 248.057 234 251C228.94 247.417 225.483 248.667 225 255z"/>
<path style="fill:#21655e; stroke:none;" d="M231 248L232 249L231 248M235 248L236 249L235 248M240 248L241 249L240 248M244 248L245 249L244 248M249 248L250 249L249 248M275.667 248.333L276.333 248.667L275.667 248.333M287.333 248.667L287.667 249.333L287.333 248.667z"/>
<path style="fill:#1fb0a0; stroke:none;" d="M297 248L296 255L300 254L297 248z"/>
<path style="fill:#a5a5a5; stroke:none;" d="M351 248L352 249L351 248z"/>
<path style="fill:#21655e; stroke:none;" d="M37 249L38 250L37 249M72 249L73 250L72 249M107 249L108 250L107 249M163.333 249.667L163.667 250.333L163.333 249.667M175 249L176 250L175 249M241 249L242 250L241 249M250 249L251 250L250 249M256 249L257 250L256 249M277 249L278 250L277 249M296.333 249.667L296.667 250.333L296.333 249.667M308 249L309 250L308 249M332 249L333 250L332 249z"/>
<path style="fill:#a5a5a5; stroke:none;" d="M19 250L20 251L19 250z"/>
<path style="fill:#21655e; stroke:none;" d="M64.3333 250.667L64.6667 251.333L64.3333 250.667M80.3333 250.667L80.6667 251.333L80.3333 250.667M97.3333 250.667L97.6667 251.333L97.3333 250.667M119 250L120 251L119 250M185.333 250.667L185.667 251.333L185.333 250.667M233 250L234 251L233 250M242 250L243 251L242 250M251 250L252 251L251 250M279 250L280 251L279 250M299.333 250.667L299.667 251.333L299.333 250.667M350 250L351 251L350 250M110.333 251.667L110.667 252.333L110.333 251.667M213 251L214 252L213 251M257 251L258 252L257 251M280 251L281 252L280 251M286 251L287 252L286 251M309.333 251.667L309.667 252.333L309.333 251.667z"/>
<path style="fill:#a5a5a5; stroke:none;" d="M350 251L351 252L350 251z"/>
<path style="fill:#21655e; stroke:none;" d="M20 252L21 253L20 252M38 252L39 253L38 252M65.3333 252.667L65.6667 253.333L65.3333 252.667M79.3333 252.667L79.6667 253.333L79.3333 252.667M106 252L107 253L106 252M120.333 252.667L120.667 253.333L120.333 252.667M162 252L163 253L162 252M176 252L173 254L173 255C175.348 254.706 176.951 254.507 176 252M258 252L259 253L258 252M331 252L332 253L331 252z"/>
<path style="fill:#a5a5a5; stroke:none;" d="M20 253L21 254L20 253z"/>
<path style="fill:#21655e; stroke:none;" d="M96 253L97 254L96 253M186 253L187 254L186 253M237 253L238 254L237 253M246 253L247 254L246 253M281 253L282 254L281 253M295.333 253.667L295.667 254.333L295.333 253.667M300 253L297 254L297 255L300 253z"/>
<path style="fill:#a5a5a5; stroke:none;" d="M349 253L350 254L349 253z"/>
<path style="fill:#21655e; stroke:none;" d="M39 254L40 255L39 254M106 254L106 255L112 255L106 254M171 254L172 255L171 254M212 254L213 255L212 254M231 254L232 255L231 254M236 254L237 255L236 254M240 254L241 255L240 254M245 254L246 255L245 254M249 254L250 255L249 254M262 254L263 255L262 254M285 254L286 255L285 254M310.333 254.667L310.667 255.333L310.333 254.667M330 254L331 255L330 254z"/>
<path style="fill:#a5a5a5; stroke:none;" d="M21 255L22 256L21 255z"/>
<path style="fill:#21655e; stroke:none;" d="M78 255L79 256L78 255M121 255L122 256L121 255M146 255L146 266L147 266L146 255M161 255L162 256L161 255M225 259C228.583 257.56 229.851 257.776 233 260L234 260C237.647 257.463 239.183 257.881 243 260C239.978 256.083 237.446 255.021 234 259C230.335 256.016 228.26 255.234 225 259M232 255L232 256L235 256L232 255M241 255L241 256L244 256L241 255M247 255L248 256L247 255M250.667 255.333L251.333 255.667L250.667 255.333M259 255L260 256L259 255M264 255L264 256L267 256L264 255M348 255L349 256L348 255M40 256L41 257L40 256M66 256L67 257L66 256M95 256L96 257L95 256M187 256L188 257L187 256M210 256L211 257L210 256z"/>
<path style="fill:#030808; stroke:none;" d="M226 264L227 264L230 261L233 266L234 266L247 261L248 261L250 264L251 264L253 262L253 261C249.444 256.978 246.809 255.487 243 260L242 260C239.034 256.571 236.966 256.571 234 260C229.487 256.329 223.39 257.144 226 264z"/>
<path style="fill:#21655e; stroke:none;" d="M258 256L259 257L258 256M261 256L262 257L261 256M270.667 256.333L271.333 256.667L270.667 256.333M284 256L285 257L284 256M311.333 256.667L311.667 257.333L311.333 256.667M329 256L330 257L329 256z"/>
<path style="fill:#a5a5a5; stroke:none;" d="M22 257L23 258L22 257z"/>
<path style="fill:#21655e; stroke:none;" d="M160 257L161 258L160 257M209 257L210 258L209 257M221 257L222 258L221 257M262 257L263 258L262 257M272 257L273 258L272 257M347 257L348 258L347 257M41 258L42 259L41 258M67 258L68 259L67 258M77 258L78 259L77 258M94 258L95 259L94 258M122 258L123 259L122 258M188.333 258.667L188.667 259.333L188.333 258.667z"/>
<path style="fill:#a5a5a5; stroke:none;" d="M233 258L234 259L233 258M251 258L252 259L251 258z"/>
<path style="fill:#21655e; stroke:none;" d="M257 258L258 259L257 258M265 258L265 259L268 259L265 258M270.667 258.333L271.333 258.667L270.667 258.333M281.333 258.667L281.667 259.333L281.333 258.667M328 258L329 259L328 258z"/>
<path style="fill:#a5a5a5; stroke:none;" d="M347 258L348 259L347 258z"/>
<path style="fill:#21655e; stroke:none;" d="M23 259L24 260L23 259M220 259L221 260L220 259M251 259L252 260L251 259M256 259L257 260L256 259M283 259L284 260L283 259M346 259L347 260L346 259z"/>
<path style="fill:#a5a5a5; stroke:none;" d="M23 260L24 261L23 260z"/>
<path style="fill:#21655e; stroke:none;" d="M42 260L43 261L42 260M76.3333 260.667L76.6667 261.333L76.3333 260.667M123 260L124 261L123 260M159 260L160 261L159 260M219 260L220 261L219 260M252 260L253 261L252 260M312 260L313 261L312 260M327 260L328 261L327 260z"/>
<path style="fill:#a5a5a5; stroke:none;" d="M346 260L347 261L346 260z"/>
<path style="fill:#21655e; stroke:none;" d="M24 261L25 262L24 261M43 261L44 262L43 261M68 261L69 262L68 261M93 261L94 262L93 261M189 261L190 262L189 261M218 261L219 262L218 261M223 261L224 262L223 261M229 261L230 262L229 261M247 261L248 262L247 261M255.333 261.667L255.667 262.333L255.333 261.667M280 261L281 262L280 261M282.333 261.667L282.667 262.333L282.333 261.667M345 261L346 262L345 261z"/>
<path style="fill:#a5a5a5; stroke:none;" d="M24 262L25 263L24 262z"/>
<path style="fill:#21655e; stroke:none;" d="M103 262L103 263L114 263L103 262M158.333 262.667L158.667 263.333L158.333 262.667M169 262L169 263L180 263L169 262M217 262L218 263L217 262M224 262L225 263L224 262M230 262L231 263L230 262M239 262L240 263L239 262M248 262L249 263L248 262M292 264L303 263C299.612 261.578 294.554 261.077 292 264M313 262L314 263L313 262M326 262L327 263L326 262z"/>
<path style="fill:#a5a5a5; stroke:none;" d="M345 262L346 263L345 262z"/>
<path style="fill:#21655e; stroke:none;" d="M25 263L26 264L25 263M69 263L70 264L69 263M75 263L76 264L75 263M92 263L93 264L92 263M124 263L125 264L124 263M168.333 263.667L168.667 264.333L168.333 263.667M216 263L217 264L216 263M225 263L226 264L225 263M227 263L228 264L227 263M236 263L237 264L236 263M245 263L246 264L245 263M249 263L250 264L249 263M251 263L252 264L251 263M256 263L257 264L256 263M303 263L304 264L303 263M344 263L345 264L344 263z"/>
<path style="fill:#a5a5a5; stroke:none;" d="M25 264L26 265L25 264z"/>
<path style="fill:#21655e; stroke:none;" d="M102.333 264.667L102.667 265.333L102.333 264.667M114.333 264.667L114.667 265.333L114.333 264.667M190.333 264.667L190.667 265.333L190.333 264.667M213.667 264.333L214.333 264.667L213.667 264.333M235 264L236 265L235 264M241 264L242 265L241 264M258.667 264.333L259.333 264.667L258.667 264.333M277 264L278 265L277 264M281.333 264.667L281.667 265.333L281.333 264.667z"/>
<path style="fill:#a5a5a5; stroke:none;" d="M344 264L345 265L344 264z"/>
<path style="fill:#21655e; stroke:none;" d="M26 265L27 266L26 265M45 265L46 266L45 265M74 265L75 266L74 265M125 265L126 266L125 265M157 265L158 266L157 265M180 265L181 266L180 265M210 265L210 266L213 266L210 265M234 265L235 266L234 265M242.667 265.333L243.333 265.667L242.667 265.333M260.667 265.333L261.333 265.667L260.667 265.333M275.667 265.333L276.333 265.667L275.667 265.333M291 265L292 266L291 265M314 265L315 266L314 265M324 265L325 266L324 265M343 265L344 266L343 265z"/>
<path style="fill:#a5a5a5; stroke:none;" d="M26 266L27 267L26 266z"/>
<path style="fill:#21655e; stroke:none;" d="M265 266L265 267L273 267L265 266z"/>
<path style="fill:#a5a5a5; stroke:none;" d="M343 266L344 267L343 266z"/>
<path style="fill:#21655e; stroke:none;" d="M27 267L28 268L27 267M46 267L47 268L46 267M323 267L324 268L323 267M342 267L343 268L342 267M47 268L48 269L47 268M322.333 268.667L322.667 269.333L322.333 268.667z"/>
<path style="fill:#a5a5a5; stroke:none;" d="M342 268L343 269L342 268z"/>
<path style="fill:#21655e; stroke:none;" d="M28 269L29 270L28 269M341 269L342 270L341 269M48 270L49 271L48 270M321 270L322 271L321 270z"/>
<path style="fill:#a5a5a5; stroke:none;" d="M29 271L30 272L29 271z"/>
<path style="fill:#21655e; stroke:none;" d="M340 271L341 272L340 271z"/>
<path style="fill:#a5a5a5; stroke:none;" d="M30 273L31 274L30 273z"/>
<path style="fill:#21655e; stroke:none;" d="M50 273L51 274L50 273z"/>
<path style="fill:#a5a5a5; stroke:none;" d="M339 273L340 274L339 273z"/>
<path style="fill:#21655e; stroke:none;" d="M31 274L32 275L31 274M338 274L339 275L338 274M51 275L52 276L51 275M71 275L71 281L71 282L75 282L76 275L71 275M79 275L79 276L81 277L78 277L78 278L80 279L79 275M84 275L84 282L88 282L86 275L84 275M89 280L90 280L90 276L95 277L96 282L97 282L98 280C94.7263 276.286 90.1399 273.175 89 280M98 275L97 278L98 279L101 278L101 282L102 282L102 278L98 277L98 276L100 276L98 275M102 277L105 276L104 282L105 282L107 275L102 277M108 275L108 280L109 280L110 275L108 275M113 275L110 282L114 281L113 275M116 275L117 276L116 275M120 275L121 280L122 280L120 275M125 275L127 282L128 282L130 275L125 275M132 275L131 279L132 279L132 275M136 275L136 282L141 281L141 280L136 275M140 275L140 276L141 278L143 279L144 279L140 275M145 275L147 277L146 279L146 280L147 280L150 278L150 277L145 275M149 275L149 276L155 277L153 281L157 276L149 275M158 275L158 282L159 282L158 275M161 275L161 281L161 282L166 281L166 277L165 277L165 279L164 279L165 275L161 275M169 275L168 276L169 279L171 279L172 276L169 275M173 275L173 276L176 276L175 282L176 282L178 275L173 275M180 275L179 280L180 280L180 275M184 275L185 276L184 275M187 275L187 282L188 282L187 275M191 275L193 277L191 275M196 275L196 277L198 275L196 275M200 275L197 280L204 280L200 275M203 275L205 277L205 275L203 275M207 275L206 276L210 278L210 277L209 276L207 275M215 275L216 278L220 279L219 275L215 275M222 276L223 279L225 279L226 278L226 276L225 275L222 276M228 275L228 281L228 282L232 282L230 279L231 278C234.059 280.96 235.796 282.131 240 281C239.421 275.527 236.358 274.086 233 279L233 275L228 275z"/>
<path style="fill:#030808; stroke:none;" d="M230 275L231 276L230 275z"/>
<path style="fill:#21655e; stroke:none;" d="M241 275L241 280L243 280L243 275L241 275M245 275L245 280L247 280L247 275L245 275M248 275L250 282L249 276L250 276L251 280L254 275L252 277L251 277L248 275M260 275C261.556 276.813 262.444 276.813 264 275L260 275z"/>
<path style="fill:#030808; stroke:none;" d="M261.667 275.333L262.333 275.667L261.667 275.333z"/>
<path style="fill:#21655e; stroke:none;" d="M266 275L267 276L266 275M270 275L270 282L275 281L275 280L270 275M274 277L277 279L278 279L277 275L274 277M280 275L284 279L284 275L280 275M285 275L285 280L286 280L287 275L285 275M290 275L289 278L290 278L290 275M293 282L294 282L293 276L297 278C297.648 274.073 291.08 275.82 293 282M318 275L319 276L318 275z"/>
<path style="fill:#a5a5a5; stroke:none;" d="M338 275L339 276L338 275M32 276L33 277L32 276z"/>
<path style="fill:#21655e; stroke:none;" d="M52 276L53 277L52 276z"/>
<path style="fill:#030808; stroke:none;" d="M71 276L73 281L71 276M75.3333 276.667L75.6667 277.333L75.3333 276.667M79 276L79 278L81 276L79 276M85 276L86 277L85 276M90 276L90 281L91 281L90 276M93 276L94 277L93 276M98.6667 276.333L99.3333 276.667L98.6667 276.333M104 276L104 281L105 281L104 276M109 276L111 281L109 276M113 276L113 280L114 280L113 276M116 276L116 281L117 281L117 278L121 281L121 276L120 276L119 279L116 276M127 276L128 277L127 276M132 276L132 281L133 281L132 276M136 276L136 281L137 281L136 276M140 276L139 281L144 281L143 277L142 279L141 279L142 276L140 276z"/>
<path style="fill:#a5a5a5; stroke:none;" d="M147 276L148 277L147 276z"/>
<path style="fill:#030808; stroke:none;" d="M148 276L148 278L150 276L148 276M152 276L153 277L152 276M155 276L156 277L155 276M158 276L158 281L159 281L158 276M161 276L163 281L161 276M164 276L164 279L165 279L166 276L164 276M169.667 276.333L170.333 276.667L169.667 276.333M175 276L175 281L176 281L175 276M180 276L182 281L180 276M184 276L183 281L184 281L184 276M187 276L187 281L188 281L188 278L192 281L192 276L191 276L190 279L187 276M197 276L197 279L198 279L197 276M200.333 276.667L200.667 277.333L200.333 276.667M203 276L203 279L204 279L203 276M207 276L209 278L209 276L207 276M215 276L215 281L216 281L218 281L219 281L215 276M218 276L220 278L220 276L218 276M223.667 276.333L224.333 276.667L223.667 276.333M228 276L230 281L228 276M232.333 276.667L232.667 277.333L232.333 276.667M235 276L237 281L239 276L238 276L235 276M249 276L249 281L250 281L249 276z"/>
<path style="fill:#a5a5a5; stroke:none;" d="M251 276L252 277L251 276z"/>
<path style="fill:#030808; stroke:none;" d="M253 276L252 281L253 276z"/>
<path style="fill:#21655e; stroke:none;" d="M258.333 276.667L258.667 277.333L258.333 276.667z"/>
<path style="fill:#030808; stroke:none;" d="M259 276L261 281L259 276M266 276L266 281L267 281L266 276M270 276L270 281L271 281L270 276M275 276L276 277L275 276M280 276L280 281L281 281L283 279L283 278L280 276M286 276L288 281L286 276M290 276L289 281L290 281L290 276M293 276L293 281L294 281L297 281L297 276L296 276L293 276z"/>
<path style="fill:#21655e; stroke:none;" d="M317 276L318 277L317 276M337 276L338 277L337 276z"/>
<path style="fill:#030808; stroke:none;" d="M81 277L78 278L83 281L81 277z"/>
<path style="fill:#1fb0a0; stroke:none;" d="M91 277L91 280L94 279L94 278L91 277z"/>
<path style="fill:#030808; stroke:none;" d="M94 277L92 280L92 281L94 277z"/>
<path style="fill:#21655e; stroke:none;" d="M115 277L115 280L116 280L115 277M118 277L119 278L118 277M133 277L136 279L133 277z"/>
<path style="fill:#030808; stroke:none;" d="M146 277L147 278L146 277M153 277L153 279L155 277L153 277M171 277L167 281L173 281L171 277z"/>
<path style="fill:#21655e; stroke:none;" d="M183 277L184 278L183 277M189 277L190 278L189 277z"/>
<path style="fill:#030808; stroke:none;" d="M206 277L205 281L210 278L206 277z"/>
<path style="fill:#1fb0a0; stroke:none;" d="M217 277L218 278L217 277z"/>
<path style="fill:#030808; stroke:none;" d="M222 277L221 281L227 281L226 278L222 277z"/>
<path style="fill:#1fb0a0; stroke:none;" d="M237 277L238 278L237 277z"/>
<path style="fill:#21655e; stroke:none;" d="M267 277L270 279L267 277z"/>
<path style="fill:#030808; stroke:none;" d="M274 277L273 281L278 281L277 277L275 279L274 277z"/>
<path style="fill:#1fb0a0; stroke:none;" d="M294.667 277.333L295.333 277.667L294.667 277.333z"/>
<path style="fill:#a5a5a5; stroke:none;" d="M33 278L34 279L33 278z"/>
<path style="fill:#030808; stroke:none;" d="M74 278L75 279L74 278z"/>
<path style="fill:#a5a5a5; stroke:none;" d="M80 278L81 279L80 278z"/>
<path style="fill:#030808; stroke:none;" d="M97 278C98.5556 279.813 99.4444 279.813 101 278L97 278z"/>
<path style="fill:#21655e; stroke:none;" d="M117 278L119 280L117 278M119 278L120 279L119 278M139 278L140 279L139 278z"/>
<path style="fill:#a5a5a5; stroke:none;" d="M141 278L142 279L141 278z"/>
<path style="fill:#030808; stroke:none;" d="M147 278L147 281L148 281L147 278z"/>
<path style="fill:#21655e; stroke:none;" d="M190 278L191 279L190 278M192.333 278.667L192.667 279.333L192.333 278.667z"/>
<path style="fill:#030808; stroke:none;" d="M231 278L231 281L232 281L233 281L231 278M251 278L252 279L251 278z"/>
<path style="fill:#21655e; stroke:none;" d="M261 278L260 282L263 281L261 278z"/>
<path style="fill:#030808; stroke:none;" d="M262 278L262 281C264.006 279.873 264.006 279.127 262 278z"/>
<path style="fill:#21655e; stroke:none;" d="M273 278L274 279L273 278z"/>
<path style="fill:#a5a5a5; stroke:none;" d="M275 278L276 279L275 278M336 278L337 279L336 278z"/>
<path style="fill:#21655e; stroke:none;" d="M34 279L35 280L34 279M54 279L55 280L54 279z"/>
<path style="fill:#1fb0a0; stroke:none;" d="M73 279L74 280L73 279z"/>
<path style="fill:#030808; stroke:none;" d="M75 279L74 281L76 281L75 279z"/>
<path style="fill:#21655e; stroke:none;" d="M82 279L83 280L82 279M93 279L94 280L93 279z"/>
<path style="fill:#a5a5a5; stroke:none;" d="M117 279L118 280L117 279M133 279L134 280L133 279z"/>
<path style="fill:#1fb0a0; stroke:none;" d="M163 279L164 280L163 279z"/>
<path style="fill:#030808; stroke:none;" d="M165 279L166 280L165 279z"/>
<path style="fill:#21655e; stroke:none;" d="M167 279L168 280L167 279M172 279L173 280L172 279M183 279L184 280L183 279M189 279L190 280L189 279z"/>
<path style="fill:#030808; stroke:none;" d="M198 279L198 281L200 279L198 279M201 279L203 281L203 279L201 279z"/>
<path style="fill:#21655e; stroke:none;" d="M205 279L206 280L205 279M210 279L211 282L210 279M216 279L216 281L218 279L216 279M221 279L222 280L221 279M226 279L227 280L226 279z"/>
<path style="fill:#1fb0a0; stroke:none;" d="M230.667 279.333L231.333 279.667L230.667 279.333M236.667 279.333L237.333 279.667L236.667 279.333z"/>
<path style="fill:#030808; stroke:none;" d="M239 279L240 280L239 279z"/>
<path style="fill:#a5a5a5; stroke:none;" d="M250 279L251 280L250 279z"/>
<path style="fill:#21655e; stroke:none;" d="M258 279L259 280L258 279M264 279L265 280L264 279z"/>
<path style="fill:#a5a5a5; stroke:none;" d="M267 279L268 280L267 279z"/>
<path style="fill:#21655e; stroke:none;" d="M281 279L282 280L281 279M289 279L290 280L289 279M294 279L295 280L294 279M296 279L297 280L296 279M315 279L316 280L315 279M335 279L336 280L335 279M55 280L56 281L55 280M77 280L77 282L79 280L77 280M81 280L82 281L81 280z"/>
<path style="fill:#030808; stroke:none;" d="M85 280L86 281L85 280z"/>
<path style="fill:#21655e; stroke:none;" d="M90 282L93 282L92 280L90 282M94 280L95 281L94 280z"/>
<path style="fill:#030808; stroke:none;" d="M96 280L97 281L96 280M101 280L102 281L101 280M112 280L113 281L112 280z"/>
<path style="fill:#21655e; stroke:none;" d="M119 280L120 281L119 280M131 280L132 281L131 280M142 280L143 281L142 280M144 280L145 281L144 280z"/>
<path style="fill:#030808; stroke:none;" d="M164 280L165 281L164 280z"/>
<path style="fill:#21655e; stroke:none;" d="M168 280L169 281L168 280M171 280L172 281L171 280M181 282L184 282L183 280L181 282M184 280L185 281L184 280M190 280L191 281L190 280M199 280L200 281L199 280M201 280L202 281L201 280M206 280L207 281L206 280M219.333 280.667L219.667 281.333L219.333 280.667M222 280L223 281L222 280M225 280L226 281L225 280z"/>
<path style="fill:#030808; stroke:none;" d="M238 280L239 281L238 280M242 280L242 281L246 281L242 280z"/>
<path style="fill:#21655e; stroke:none;" d="M259 280L260 281L259 280M276 280L277 281L276 280M278 280L279 281L278 280M287 282L290 282L289 280L287 282M290 280L291 281L290 280M297 280L298 281L297 280M314 280L315 281L314 280z"/>
<path style="fill:#a5a5a5; stroke:none;" d="M35 281L36 282L35 281z"/>
<path style="fill:#21655e; stroke:none;" d="M82 281L83 282L82 281M116 281L117 282L116 281M120 281L121 282L120 281M132 281L133 282L132 281M143 281L144 282L143 281M147 281L148 282L147 281M167 281L168 282L167 281M172 281L173 282L172 281M191 281L192 282L191 281M198 281L199 282L198 281M202 281L203 282L202 281M205 281L206 282L205 281M215 281L216 282L215 281M221 281L222 282L221 281M226 281L227 282L226 281M242 281L242 282L246 282L242 281M252.667 281.333L253.333 281.667L252.667 281.333M266 281L267 282L266 281M277 281L278 282L277 281M280 281L281 282L280 281M296 281L297 282L296 281z"/>
<path style="fill:#a5a5a5; stroke:none;" d="M334 281L335 282L334 281z"/>
<path style="fill:#21655e; stroke:none;" d="M36 282L37 283L36 282M333 282L334 283L333 282M57 283L58 284L57 283M312 283L313 284L312 283z"/>
<path style="fill:#a5a5a5; stroke:none;" d="M37 284L38 285L37 284z"/>
<path style="fill:#21655e; stroke:none;" d="M58 284L59 285L58 284M311 284L312 285L311 284z"/>
<path style="fill:#a5a5a5; stroke:none;" d="M332 284L333 285L332 284z"/>
<path style="fill:#21655e; stroke:none;" d="M38 285L39 286L38 285M59 285L60 286L59 285M331 285L332 286L331 285z"/>
<path style="fill:#a5a5a5; stroke:none;" d="M39 287L40 288L39 287z"/>
<path style="fill:#21655e; stroke:none;" d="M309 287L310 288L309 287z"/>
<path style="fill:#a5a5a5; stroke:none;" d="M330 287L331 288L330 287M40 288L41 289L40 288z"/>
<path style="fill:#21655e; stroke:none;" d="M308 288L309 289L308 288z"/>
<path style="fill:#a5a5a5; stroke:none;" d="M329 288L330 289L329 288z"/>
<path style="fill:#21655e; stroke:none;" d="M41 289L42 290L41 289M62 289L63 290L62 289M307 289L308 290L307 289M328 289L329 290L328 289M63 290L64 291L63 290M306 290L307 291L306 290z"/>
<path style="fill:#a5a5a5; stroke:none;" d="M42 291L43 292L42 291z"/>
<path style="fill:#21655e; stroke:none;" d="M64 291L65 292L64 291M305 291L306 292L305 291z"/>
<path style="fill:#a5a5a5; stroke:none;" d="M327 291L328 292L327 291M43 292L44 293L43 292z"/>
<path style="fill:#21655e; stroke:none;" d="M65 292L66 293L65 292M304 292L305 293L304 292z"/>
<path style="fill:#a5a5a5; stroke:none;" d="M326 292L327 293L326 292z"/>
<path style="fill:#21655e; stroke:none;" d="M44 293L45 294L44 293M325 293L326 294L325 293M45 294L46 295L45 294M67 294L68 295L67 294z"/>
<path style="fill:#a5a5a5; stroke:none;" d="M46 296L47 297L46 296z"/>
<path style="fill:#21655e; stroke:none;" d="M69 296L70 297L69 296M300 296L301 297L300 296z"/>
<path style="fill:#a5a5a5; stroke:none;" d="M323 296L324 297L323 296M47 297L48 298L47 297M322 297L323 298L322 297M48 298L49 299L48 298z"/>
<path style="fill:#21655e; stroke:none;" d="M71 298L72 299L71 298M298 298L299 299L298 298M321 298L322 299L321 298M49 299L50 300L49 299M320 299L321 300L320 299M50 300L51 301L50 300M73 300L74 301L73 300M296 300L297 301L296 300M319 300L320 301L319 300M51 301L52 302L51 301M75 302L76 303L75 302M294 302L295 303L294 302M76 303L77 304L76 303M293 303L294 304L293 303z"/>
<path style="fill:#a5a5a5; stroke:none;" d="M317 303L318 304L317 303z"/>
<path style="fill:#21655e; stroke:none;" d="M77 304L78 305L77 304M292 304L293 305L292 304z"/>
<path style="fill:#a5a5a5; stroke:none;" d="M316 304L317 305L316 304M54 305L55 306L54 305z"/>
<path style="fill:#21655e; stroke:none;" d="M78 305L79 306L78 305M291 305L292 306L291 305z"/>
<path style="fill:#a5a5a5; stroke:none;" d="M315 305L316 306L315 305M55 306L56 307L55 306z"/>
<path style="fill:#21655e; stroke:none;" d="M290 306L291 307L290 306z"/>
<path style="fill:#a5a5a5; stroke:none;" d="M314 306L315 307L314 306M56 307L57 308L56 307z"/>
<path style="fill:#21655e; stroke:none;" d="M289 307L290 308L289 307z"/>
<path style="fill:#a5a5a5; stroke:none;" d="M313 307L314 308L313 307M57 308L58 309L57 308z"/>
<path style="fill:#21655e; stroke:none;" d="M82 308L83 309L82 308M287 308L288 309L287 308z"/>
<path style="fill:#a5a5a5; stroke:none;" d="M312 308L313 309L312 308M58 309L59 310L58 309z"/>
<path style="fill:#21655e; stroke:none;" d="M83 309L84 310L83 309M286 309L287 310L286 309z"/>
<path style="fill:#a5a5a5; stroke:none;" d="M311 309L312 310L311 309M59 310L60 311L59 310z"/>
<path style="fill:#21655e; stroke:none;" d="M84 310L85 311L84 310M285 310L286 311L285 310z"/>
<path style="fill:#a5a5a5; stroke:none;" d="M310 310L311 311L310 310M60 311L61 312L60 311z"/>
<path style="fill:#21655e; stroke:none;" d="M284 311L285 312L284 311z"/>
<path style="fill:#a5a5a5; stroke:none;" d="M309 311L310 312L309 311M61 312L62 313L61 312z"/>
<path style="fill:#21655e; stroke:none;" d="M87 312L88 313L87 312M282 312L283 313L282 312z"/>
<path style="fill:#a5a5a5; stroke:none;" d="M308 312L309 313L308 312z"/>
<path style="fill:#21655e; stroke:none;" d="M88 313L89 314L88 313M281 313L282 314L281 313z"/>
<path style="fill:#a5a5a5; stroke:none;" d="M307 313L308 314L307 313z"/>
<path style="fill:#21655e; stroke:none;" d="M90 314L91 315L90 314M279 314L280 315L279 314M65 315L66 316L65 315M91 315L92 316L91 315M278 315L279 316L278 315M66 316L67 317L66 316M93 316L94 317L93 316M277 316L278 317L277 316M303 316L304 317L303 316z"/>
<path style="fill:#a5a5a5; stroke:none;" d="M67 317L68 318L67 317z"/>
<path style="fill:#21655e; stroke:none;" d="M94 317L95 318L94 317M275 317L276 318L275 317M302 317L303 318L302 317z"/>
<path style="fill:#a5a5a5; stroke:none;" d="M68 318L69 319L68 318z"/>
<path style="fill:#21655e; stroke:none;" d="M274 318L275 319L274 318z"/>
<path style="fill:#a5a5a5; stroke:none;" d="M301 318L302 319L301 318M69 319L70 320L69 319z"/>
<path style="fill:#21655e; stroke:none;" d="M97 319L98 320L97 319M272 319L273 320L272 319z"/>
<path style="fill:#a5a5a5; stroke:none;" d="M300 319L301 320L300 319z"/>
<path style="fill:#21655e; stroke:none;" d="M71 320L72 321L71 320M99 320L100 321L99 320M270.667 320.333L271.333 320.667L270.667 320.333z"/>
<path style="fill:#a5a5a5; stroke:none;" d="M299 320L300 321L299 320z"/>
<path style="fill:#21655e; stroke:none;" d="M72 321L73 322L72 321M100 321L101 322L100 321M269 321L270 322L269 321M297 321L298 322L297 321z"/>
<path style="fill:#a5a5a5; stroke:none;" d="M73 322L74 323L73 322z"/>
<path style="fill:#21655e; stroke:none;" d="M102 322L103 323L102 322M267 322L268 323L267 322M296 322L297 323L296 322z"/>
<path style="fill:#a5a5a5; stroke:none;" d="M74 323L75 324L74 323z"/>
<path style="fill:#21655e; stroke:none;" d="M266 323L267 324L266 323z"/>
<path style="fill:#a5a5a5; stroke:none;" d="M295 323L296 324L295 323z"/>
<path style="fill:#21655e; stroke:none;" d="M76 324L77 325L76 324M106 324L107 325L106 324M264 324L265 325L264 324z"/>
<path style="fill:#a5a5a5; stroke:none;" d="M77 325L78 326L77 325z"/>
<path style="fill:#21655e; stroke:none;" d="M107 325L108 326L107 325M262 325L263 326L262 325M292 325L293 326L292 325z"/>
<path style="fill:#a5a5a5; stroke:none;" d="M78 326L79 327L78 326z"/>
<path style="fill:#21655e; stroke:none;" d="M109 326L110 327L109 326M260 326L261 327L260 326z"/>
<path style="fill:#a5a5a5; stroke:none;" d="M291 326L292 327L291 326z"/>
<path style="fill:#21655e; stroke:none;" d="M80 327L81 328L80 327M111 327L112 328L111 327M258 327L259 328L258 327M289 327L290 328L289 327z"/>
<path style="fill:#a5a5a5; stroke:none;" d="M81 328L82 329L81 328z"/>
<path style="fill:#21655e; stroke:none;" d="M113 328L114 329L113 328M256 328L257 329L256 328z"/>
<path style="fill:#a5a5a5; stroke:none;" d="M288 328L289 329L288 328z"/>
<path style="fill:#21655e; stroke:none;" d="M83 329L84 330L83 329M115 329L116 330L115 329M254 329L255 330L254 329z"/>
<path style="fill:#a5a5a5; stroke:none;" d="M287 329L288 330L287 329M84 330L85 331L84 330z"/>
<path style="fill:#21655e; stroke:none;" d="M117.667 330.333L118.333 330.667L117.667 330.333M252 330L253 331L252 330z"/>
<path style="fill:#a5a5a5; stroke:none;" d="M285 330L286 331L285 330M85 331L86 332L85 331z"/>
<path style="fill:#21655e; stroke:none;" d="M86 331L87 332L86 331M119.667 331.333L120.333 331.667L119.667 331.333M250 331L251 332L250 331M283 331L284 332L283 331z"/>
<path style="fill:#a5a5a5; stroke:none;" d="M284 331L285 332L284 331M87 332L88 333L87 332z"/>
<path style="fill:#21655e; stroke:none;" d="M122.667 332.333L123.333 332.667L122.667 332.333M247 332L248 333L247 332z"/>
<path style="fill:#a5a5a5; stroke:none;" d="M282 332L283 333L282 332z"/>
<path style="fill:#21655e; stroke:none;" d="M89 333L90 334L89 333M124 333L125 334L124 333M245 333L246 334L245 333M280 333L281 334L280 333z"/>
<path style="fill:#a5a5a5; stroke:none;" d="M281 333L282 334L281 333M90 334L91 335L90 334z"/>
<path style="fill:#21655e; stroke:none;" d="M127 334L128 335L127 334M242 334L243 335L242 334z"/>
<path style="fill:#a5a5a5; stroke:none;" d="M279 334L280 335L279 334M92 335L93 336L92 335z"/>
<path style="fill:#21655e; stroke:none;" d="M129.667 335.333L130.333 335.667L129.667 335.333M240 335L241 336L240 335M277 335L278 336L277 335M94 336L95 337L94 336M133 336L134 337L133 336M236.667 336.333L237.333 336.667L236.667 336.333M275 336L276 337L275 336z"/>
<path style="fill:#a5a5a5; stroke:none;" d="M276 336L277 337L276 336M95 337L96 338L95 337z"/>
<path style="fill:#21655e; stroke:none;" d="M96 337L97 338L96 337M135.667 337.333L136.333 337.667L135.667 337.333M233.667 337.333L234.333 337.667L233.667 337.333z"/>
<path style="fill:#a5a5a5; stroke:none;" d="M274 337L275 338L274 337M97 338L98 339L97 338z"/>
<path style="fill:#21655e; stroke:none;" d="M139.667 338.333L140.333 338.667L139.667 338.333M229.667 338.333L230.333 338.667L229.667 338.333z"/>
<path style="fill:#a5a5a5; stroke:none;" d="M272 338L273 339L272 338M99 339L100 340L99 339z"/>
<path style="fill:#21655e; stroke:none;" d="M142.667 339.333L143.333 339.667L142.667 339.333M226.667 339.333L227.333 339.667L226.667 339.333M270 339L271 340L270 339z"/>
<path style="fill:#a5a5a5; stroke:none;" d="M101 340L102 341L101 340z"/>
<path style="fill:#21655e; stroke:none;" d="M146 340L146 341L149 341L146 340M221 340L221 341L224 341L221 340M268 340L269 341L268 340M103 341L104 342L103 341M150 341L150 342L153 342L150 341M217 341L217 342L220 342L217 341M266 341L267 342L266 341M105 342L106 343L105 342M156 342L156 343L160 343L156 342M210 342L210 343L214 343L210 342M264 342L265 343L264 342z"/>
<path style="fill:#a5a5a5; stroke:none;" d="M107 343L108 344L107 343z"/>
<path style="fill:#21655e; stroke:none;" d="M161 343L161 344L166 344L161 343M204 343L204 344L209 344L204 343M262 343L263 344L262 343z"/>
<path style="fill:#a5a5a5; stroke:none;" d="M109 344L110 345L109 344z"/>
<path style="fill:#21655e; stroke:none;" d="M171 344L171 345L199 345L171 344z"/>
<path style="fill:#a5a5a5; stroke:none;" d="M260 344L261 345L260 344M111 345L112 346L111 345z"/>
<path style="fill:#21655e; stroke:none;" d="M112 345L113 346L112 345M257 345L258 346L257 345z"/>
<path style="fill:#a5a5a5; stroke:none;" d="M258 345L259 346L258 345M113 346L114 347L113 346z"/>
<path style="fill:#21655e; stroke:none;" d="M114 346L115 347L114 346M255 346L256 347L255 346z"/>
<path style="fill:#a5a5a5; stroke:none;" d="M256 346L257 347L256 346M116 347L117 348L116 347M253 347L254 348L253 347M118 348L119 349L118 348z"/>
<path style="fill:#21655e; stroke:none;" d="M119 348L120 349L119 348M250 348L251 349L250 348z"/>
<path style="fill:#a5a5a5; stroke:none;" d="M251 348L252 349L251 348M121 349L122 350L121 349z"/>
<path style="fill:#21655e; stroke:none;" d="M122 349L123 350L122 349z"/>
<path style="fill:#a5a5a5; stroke:none;" d="M248 349L249 350L248 349M123.667 350.333L124.333 350.667L123.667 350.333M245.667 350.333L246.333 350.667L245.667 350.333M126.667 351.333L127.333 351.667L126.667 351.333z"/>
<path style="fill:#21655e; stroke:none;" d="M242 351L243 352L242 351z"/>
<path style="fill:#a5a5a5; stroke:none;" d="M243 351L244 352L243 351M129.667 352.333L130.333 352.667L129.667 352.333z"/>
<path style="fill:#21655e; stroke:none;" d="M131 352L132 353L131 352M238.667 352.333L239.333 352.667L238.667 352.333z"/>
<path style="fill:#a5a5a5; stroke:none;" d="M240 352L241 353L240 352M133 353L134 354L133 353z"/>
<path style="fill:#21655e; stroke:none;" d="M134 353L135 354L134 353M235 353L236 354L235 353z"/>
<path style="fill:#a5a5a5; stroke:none;" d="M236.667 353.333L237.333 353.667L236.667 353.333M136 354L137 355L136 354z"/>
<path style="fill:#21655e; stroke:none;" d="M137 354L138 355L137 354M232 354L233 355L232 354z"/>
<path style="fill:#a5a5a5; stroke:none;" d="M233 354L234 355L233 354M140 355L141 356L140 355z"/>
<path style="fill:#21655e; stroke:none;" d="M141.667 355.333L142.333 355.667L141.667 355.333M228 355L229 356L228 355z"/>
<path style="fill:#a5a5a5; stroke:none;" d="M229 355L230 356L229 355M144.667 356.333L145.333 356.667L144.667 356.333z"/>
<path style="fill:#21655e; stroke:none;" d="M146 356L147 357L146 356M223.667 356.333L224.333 356.667L223.667 356.333z"/>
<path style="fill:#a5a5a5; stroke:none;" d="M225 356L226 357L225 356M148.667 357.333L149.333 357.667L148.667 357.333z"/>
<path style="fill:#21655e; stroke:none;" d="M150.667 357.333L151.333 357.667L150.667 357.333M218.667 357.333L219.333 357.667L218.667 357.333z"/>
<path style="fill:#a5a5a5; stroke:none;" d="M220.667 357.333L221.333 357.667L220.667 357.333M154.667 358.333L155.333 358.667L154.667 358.333z"/>
<path style="fill:#21655e; stroke:none;" d="M156.667 358.333L157.333 358.667L156.667 358.333M212.667 358.333L213.333 358.667L212.667 358.333z"/>
<path style="fill:#a5a5a5; stroke:none;" d="M214.667 358.333L215.333 358.667L214.667 358.333M160 359L160 360L163 360L160 359z"/>
<path style="fill:#21655e; stroke:none;" d="M163 359L163 360L166 360L163 359M204 359L204 360L207 360L204 359z"/>
<path style="fill:#a5a5a5; stroke:none;" d="M207 359L207 360L210 360L207 359M169 360L169 361L174 361L169 360z"/>
<path style="fill:#21655e; stroke:none;" d="M174 360L174 361L196 361L174 360z"/>
<path style="fill:#a5a5a5; stroke:none;" d="M196 360L196 361L201 361L196 360z"/>
</svg>
